<?xml version="1.0" encoding="UTF-8" standalone="no"?>
<!-- Created with Inkscape (http://www.inkscape.org/) -->

<svg
   width="16"
   height="16"
   viewBox="0 0 4.2333333 4.2333333"
   version="1.1"
   id="svg1"
   xml:space="preserve"
   xmlns="http://www.w3.org/2000/svg"
   xmlns:svg="http://www.w3.org/2000/svg"><defs
     id="defs1" /><path
     id="path26960"
     style="fill:#2e3436;fill-opacity:1;stroke-width:0.0176859"
     d="m 2.8587057,0.13661166 c -0.0034,1e-5 -0.0066,9.6e-4 -0.0099,0.001 -0.0014,5e-5 -0.0024,0 -0.0039,7e-5 -0.0026,9e-5 -0.0058,-5e-5 -0.0082,1.3e-4 -6.44e-4,3e-5 -0.0015,-2e-5 -0.0022,3e-5 -0.0011,9e-5 -0.0019,4.4e-4 -0.003,5.6e-4 -0.0067,6.9e-4 -0.01285,0.002 -0.01839,0.003 -1.41e-4,5e-5 -2.84e-4,1.4e-4 -4.29e-4,1.8e-4 -1.42e-4,1e-5 -2.13e-4,-5e-5 -3.47e-4,-5e-5 -0.0074,2.3e-4 -0.0077,9e-4 -0.0046,0.003 -1.42e-4,7e-5 -2.92e-4,1.6e-4 -4.39e-4,2.2e-4 -6.52e-4,2.6e-4 -0.0013,6.7e-4 -0.0019,9.5e-4 -2.3e-4,1.1e-4 -4.65e-4,2.3e-4 -6.95e-4,3.4e-4 -0.0016,7.2e-4 -0.0034,0.001 -0.0049,0.002 -0.0075,0.004 -0.01474,0.009 -0.02236,0.0159 -6.36e-4,5.7e-4 -7.59e-4,9.8e-4 -0.0014,0.002 -3.52e-4,3.1e-4 -6.2e-4,4.5e-4 -9.78e-4,7.7e-4 -0.0056,0.005 -0.0091,0.009 -0.01224,0.0141 -3.97e-4,6e-4 -0.0013,0.001 -0.0016,0.002 -0.0025,0.004 -0.0038,0.009 -0.005,0.0144 -7e-5,1.9e-4 -2.01e-4,3.9e-4 -2.74e-4,5.8e-4 -5.3e-5,1.4e-4 -1.59e-4,3e-4 -2.1e-4,4.5e-4 -3e-6,1e-5 -7e-6,1e-5 -9e-6,2e-5 -3.6e-5,10e-5 -1.24e-4,2.1e-4 -1.59e-4,3.1e-4 -1.2e-5,3e-5 -1.8e-5,7e-5 -3.6e-5,9e-5 -3e-6,0 -6e-6,1e-5 -9e-6,1e-5 -1.59e-4,4.3e-4 -4.95e-4,8.9e-4 -6.4e-4,0.001 v 1e-5 l -9e-6,10e-6 c -3.4e-4,0.001 -2.49e-4,0.002 -5.11e-4,0.003 -0.0014,0.008 -0.0024,0.0135 -0.0044,0.0157 -8e-6,0 -9e-6,2e-5 -1.7e-5,3e-5 -2.6e-4,3e-4 -7.27e-4,2.4e-4 -10e-4,4.5e-4 -9.8e-4,5.5e-4 -0.002,0.001 -0.0036,0.001 -0.0017,2e-5 -0.0036,-2.4e-4 -0.0062,-7.7e-4 -0.0067,-0.001 -0.03042,-0.005 -0.05264,-0.008 -7.1e-5,-1e-5 -8.9e-5,-2e-5 -1.59e-4,-4e-5 -0.006,-7.6e-4 -0.0077,-4.8e-4 -0.01219,-9.7e-4 -0.0027,-1.9e-4 -0.0058,-6.1e-4 -0.0084,-6.6e-4 -5.38e-4,-4e-5 -0.0012,-1.1e-4 -0.0018,-1.4e-4 7.78e-4,-2.6e-4 0.0038,-7.1e-4 0.004,-8.9e-4 0.0026,-0.002 -0.0063,-0.002 -0.01566,-3e-5 -7.71e-4,1e-5 -0.0024,-2e-4 -0.0031,-1.6e-4 -0.0079,4.6e-4 -0.01337,0.002 -0.02093,0.006 -0.0013,6.3e-4 -0.003,0.002 -0.0044,0.003 -0.0055,0.003 -0.0104,0.006 -0.01488,0.0105 -0.0017,5.4e-4 -0.0038,0.002 -0.006,0.005 -0.002,0.002 -0.0028,0.004 -0.0028,0.005 -8.72e-4,0.001 -0.0019,0.002 -0.0027,0.003 -3.5e-5,4e-5 -8.8e-5,9e-5 -1.24e-4,1.3e-4 v 0 c -0.002,0.003 -0.0036,0.005 -0.0052,0.007 -3.96e-4,5.1e-4 -8.77e-4,0.001 -0.0013,0.002 -0.0039,0.004 -0.0083,0.006 -0.01561,0.007 -0.0052,5.4e-4 -0.01152,7.9e-4 -0.02146,8.5e-4 -0.07279,4.4e-4 -0.418703,-3.9e-4 -0.62608,-0.001 -0.112678,-6.3e-4 -0.216028,-0.001 -0.242277,-0.002 -0.01725,-5.4e-4 -0.03506,-0.001 -0.04243,-0.002 -0.0025,-5.6e-4 -0.0059,-0.001 -0.0075,-0.002 -0.0016,-10e-4 -0.0029,-0.002 -0.0048,-0.003 -6.84e-4,-0.001 -0.001,-0.002 -0.001,-0.004 v -1e-5 c 0,-0.002 -9.2e-4,-0.005 -0.0024,-0.007 -0.0015,-0.002 -0.0035,-0.004 -0.0058,-0.004 -0.0029,-0.001 -0.0095,-0.006 -0.01524,-0.009 -1.59e-4,-1.3e-4 -3.15e-4,-3.2e-4 -4.67e-4,-4.4e-4 l -9e-6,-1e-5 c -0.0014,-0.001 -0.003,-0.002 -0.0044,-0.003 -7e-6,0 -10e-6,-10e-6 -1.7e-5,-10e-6 -6e-6,-1e-5 -1.3e-5,-1e-5 -1.8e-5,-1e-5 -7.1e-5,-6e-5 -1.06e-4,-7e-5 -1.77e-4,-1.3e-4 -8.12e-4,-6.2e-4 -0.0015,-0.001 -0.0023,-0.002 -0.0021,-0.002 -0.0046,-0.004 -0.0061,-0.004 -7.1e-5,-4e-5 -2.02e-4,-4e-5 -2.66e-4,-7e-5 -1.23e-4,-8e-5 -3.3e-4,-2.7e-4 -4.47e-4,-3.3e-4 -3.5e-5,-2e-5 -8.8e-5,-2e-5 -1.24e-4,-4e-5 -3.5e-5,-1e-5 -8.8e-5,-5e-5 -1.06e-4,-7e-5 -5.3e-5,-2e-5 -1.41e-4,-4e-5 -1.93e-4,-5e-5 -7e-5,-4e-5 -1.89e-4,-1.4e-4 -2.56e-4,-1.8e-4 -4e-6,-10e-6 -1.8e-5,0 -3.5e-5,0 v -10e-6 c -1.6e-4,-7e-5 -4.5e-4,-9e-5 -6.04e-4,-1.6e-4 l -9e-6,-1e-5 c -5.06e-4,-2.9e-4 -0.0012,-8.5e-4 -0.0016,-0.001 -0.0022,-0.001 -0.0065,-0.002 -0.0104,-0.003 -3.63e-4,-9.2e-4 -0.0041,-0.001 -0.0072,-0.002 -0.01945,-0.005 -0.04141,-0.007 -0.05007,-0.002 -0.002,0.001 -0.005,0.002 -0.008,0.003 -6e-6,0 -1.2e-5,0 -1.8e-5,0 -0.0029,5.7e-4 -0.006,8.7e-4 -0.0085,0.002 -0.0013,1.4e-4 -0.0027,5.6e-4 -0.0039,5.6e-4 -0.0065,0 -0.01312,0.003 -0.0146,0.007 -8.44e-4,0.002 -0.0022,0.003 -0.0036,0.005 -0.0013,3.3e-4 -0.0037,0.002 -0.0048,0.002 -0.0014,-2.1e-4 -0.0028,-4.5e-4 -0.0039,-0.001 -4.03e-4,-3.2e-4 -9.23e-4,-4.3e-4 -0.0012,-8.6e-4 -2.95e-4,-2.4e-4 -3.22e-4,-5.5e-4 -5.57e-4,-8.2e-4 -7.13e-4,-0.001 -9.59e-4,-0.003 -3.75e-4,-0.006 3.5e-5,-1.2e-4 -3.5e-5,-1.2e-4 -9e-6,-2.6e-4 6.72e-4,-0.003 8.68e-4,-0.005 6.49e-4,-0.007 -2.19e-4,-0.002 -8.6e-4,-0.003 -0.0019,-0.003 -2.58e-4,0 -5.85e-4,-8.4e-4 -8.68e-4,-0.001 -8.67e-4,-5.8e-4 -0.0018,-0.002 -0.0028,-0.004 -1.24e-4,-4.3e-4 -2.93e-4,-8.6e-4 -4.3e-4,-0.001 -0.0011,-0.003 -0.0023,-0.007 -0.003,-0.0119 -3.5e-5,-1.6e-4 -1.06e-4,-2.6e-4 -1.42e-4,-4.3e-4 -7.95e-4,-0.004 -0.002,-0.008 -0.0035,-0.0111 -8.47e-4,-0.002 -0.0017,-0.003 -0.0027,-0.005 -4.51e-4,-5.7e-4 -0.0012,-0.001 -0.0017,-0.002 -9.71e-4,-9.7e-4 -0.0018,-0.003 -0.0029,-0.003 -0.0015,-5.2e-4 -0.0054,-0.003 -0.008,-0.005 -0.0035,-0.002 -0.005,-0.004 -0.01023,-0.008 -0.01794,-0.0109 -0.02547,-0.0143 -0.04279,-0.0155 -3.38e-4,-2.5e-4 -2.97e-4,-4.8e-4 -6.58e-4,-7e-4 -0.0017,-0.001 -0.0029,-6.8e-4 -0.0037,2.7e-4 -0.0026,-3.7e-4 -0.0052,-8.7e-4 -0.0078,-0.001 -7.43e-4,-7.5e-4 -0.0015,-0.002 -0.0025,-0.002 -6.03e-4,0 -0.001,6.6e-4 -0.0015,9.7e-4 -0.0043,-2.3e-4 -0.0082,5e-5 -0.01242,2.3e-4 -0.0021,-6.7e-4 -0.0045,-0.001 -0.0074,-0.001 -0.0034,0 -0.006,5e-4 -0.0077,0.001 -8.29e-4,10e-5 -0.0027,-1.6e-4 -0.0034,-1e-5 -3.3e-5,0 -1.13e-4,-10e-6 -1.46e-4,0 -4.5e-5,1e-5 -1.12e-4,1e-5 -1.56e-4,3e-5 -4.37e-4,9e-5 -8.1e-4,3.3e-4 -0.0012,4.3e-4 -0.0014,3.3e-4 -0.0027,9.2e-4 -0.004,0.001 -9.46e-4,3.5e-4 -0.002,5.6e-4 -0.0029,0.001 -0.0072,0.002 -0.01156,0.004 -0.01692,0.009 -5.66e-4,5.4e-4 -9.77e-4,7.7e-4 -0.0015,0.001 -0.0017,0.001 -0.0033,0.002 -0.0048,0.002 -0.0012,6e-4 -0.0027,0.002 -0.0038,0.002 -0.006,0.002 -0.01591,0.002 -0.02754,0.001 -0.0063,-9.7e-4 -0.01227,-0.002 -0.01757,-0.002 -0.005,-2.9e-4 -0.0093,-10e-5 -0.01349,2e-4 -3.3e-5,1e-5 -7.6e-5,0 -1.09e-4,0 -9.74e-4,8e-5 -0.0022,-5e-5 -0.0031,6e-5 -3e-5,0 -5.2e-5,10e-6 -8.2e-5,2e-5 -0.0013,1.4e-4 -0.0024,5.9e-4 -0.0037,8.1e-4 -0.0012,1.1e-4 -0.0034,0 -0.0045,1.8e-4 -3.72e-4,5e-5 -0.0014,-9e-5 -0.0018,-3e-5 -0.002,3.6e-4 -0.0035,0.001 -0.0052,0.002 -3.16e-4,1.4e-4 -7.11e-4,2.1e-4 -10e-4,3.6e-4 h -9e-6 c -3.2e-4,1.4e-4 -0.0013,1.2e-4 -0.0016,2.6e-4 -0.0018,0.001 -0.0029,0.002 -0.0034,0.003 -5.9e-4,4.1e-4 -0.0013,9.6e-4 -0.0019,0.001 -2.74e-4,2e-4 -5.15e-4,2.8e-4 -7.95e-4,4.9e-4 -0.0087,0.006 -0.01579,0.0101 -0.02239,0.0118 -6.5e-5,1e-5 -1.36e-4,5e-5 -2.01e-4,7e-5 -6.36e-4,1.6e-4 -0.0013,5.5e-4 -0.002,6.6e-4 -0.002,3.7e-4 -0.004,6e-5 -0.0059,-1e-5 -9.7e-5,-1e-5 -1.96e-4,0 -2.93e-4,0 -7.12e-4,-4e-5 -0.0014,5e-5 -0.0021,-4e-5 -1.63e-4,-2e-5 -3.31e-4,10e-6 -4.94e-4,-1e-5 -3.27e-4,-5e-5 -6.6e-4,4e-5 -9.87e-4,-2e-5 -2.3e-4,-3e-5 -4.64e-4,4e-5 -6.95e-4,-1e-5 -0.0027,-5.3e-4 -0.0055,-0.002 -0.0083,-0.003 -0.0022,-0.001 -0.0049,-0.003 -0.0088,-0.004 -6e-6,0 -1.4e-5,0 -1.8e-5,0 -0.002,-8.4e-4 -0.0042,-0.002 -0.006,-0.003 -0.0013,-3.8e-4 -0.0026,-2.3e-4 -0.0039,-4.4e-4 -0.0011,-2.3e-4 -0.0032,-0.001 -0.0039,-0.001 -5.47e-4,0 -0.0018,5.7e-4 -0.0024,6.3e-4 -3e-6,0 -7e-6,0 -1e-5,0 -3.5e-4,0 -7.27e-4,-1.6e-4 -0.0011,-1.5e-4 -0.0022,1.1e-4 -0.0046,9.2e-4 -0.0069,0.002 -0.0015,3.8e-4 -0.0029,4e-4 -0.0044,9.7e-4 -5.27e-4,2e-4 -0.0012,6.5e-4 -0.0017,8.7e-4 -6.4e-5,4e-5 -1.47e-4,7e-5 -2.1e-4,1.1e-4 h -9e-6 c -2.67e-4,1.2e-4 -7.94e-4,1.2e-4 -10e-4,2.5e-4 -2.81e-4,1.6e-4 -6.6e-5,1.6e-4 -3.2e-4,3.2e-4 -3.4e-4,1.4e-4 -9.73e-4,1.4e-4 -0.0013,3e-4 -2.53e-4,1.4e-4 -3.28e-4,2e-4 -5.67e-4,3.3e-4 -0.0095,0.003 -0.01789,0.007 -0.01789,0.01 0,1.6e-4 -1.56e-4,1.4e-4 -1.64e-4,2.9e-4 -10e-7,10e-6 -9e-6,0 -10e-6,10e-6 l -0.0015,8.5e-4 c -0.0016,7.1e-4 -0.0026,5.7e-4 -0.0039,8.6e-4 -4.27e-4,9e-5 -8.97e-4,2.3e-4 -0.0013,2.8e-4 -4.37e-4,6e-5 -10e-4,3.2e-4 -0.0014,3.1e-4 -8.8e-5,0 -2.15e-4,7e-5 -3.02e-4,7e-5 -0.0021,-0.001 -0.0044,-0.003 -0.0065,-0.005 -0.0024,-0.002 -0.0047,-0.005 -0.0065,-0.008 -0.0027,-0.005 -0.0062,-0.008 -0.01016,-0.0116 -4.58e-4,-3.9e-4 -7.05e-4,-9.7e-4 -0.0012,-0.001 h -9e-6 c -3.15e-4,-2.4e-4 -7.85e-4,-3.4e-4 -0.0011,-5.8e-4 -3.6e-5,-2e-5 -8.4e-5,-4e-5 -1.19e-4,-7e-5 -10e-4,-7.7e-4 -0.0021,-0.001 -0.0032,-0.002 l -9e-6,-1e-5 c -0.0015,-0.001 -0.0042,-0.002 -0.007,-0.003 -0.0014,-6.1e-4 -0.0024,-0.002 -0.0039,-0.002 -2.92e-4,-1.1e-4 -4.73e-4,-3.2e-4 -7.68e-4,-4.2e-4 -6.45e-4,-2.3e-4 -0.0014,-3.2e-4 -0.0021,-5.4e-4 -5.02e-4,-2e-4 -9.93e-4,-4.1e-4 -0.0015,-6.1e-4 -4.43e-4,-1.4e-4 -7.92e-4,-4.9e-4 -0.0012,-6.3e-4 -8.54e-4,-2.6e-4 -0.002,-1.8e-4 -0.0029,-4e-4 -0.0094,-0.003 -0.01922,-0.004 -0.02938,-0.003 -3.94e-4,7e-5 -0.001,1.6e-4 -0.0014,2.2e-4 -0.0024,1e-4 -0.0045,-2e-4 -0.0069,3e-5 -0.0083,7.8e-4 -0.01556,0.002 -0.02249,0.004 -0.0028,4.9e-4 -0.005,4.7e-4 -0.008,0.001 -0.0019,3.8e-4 -0.0042,0.002 -0.0064,0.003 -6e-6,10e-6 -1.2e-5,10e-6 -1.8e-5,10e-6 -0.0024,7.9e-4 -0.0048,0.002 -0.007,0.003 -3.2e-5,2e-5 -2.07e-4,4e-5 -2.38e-4,6e-5 -4.4e-5,1e-5 -9.2e-5,7e-5 -1.38e-4,1e-4 -0.0041,0.002 -0.0076,0.004 -0.0088,0.006 -6.6e-5,1e-4 7.8e-5,1.8e-4 2.8e-5,2.7e-4 -5.5e-5,4e-5 -1.1e-4,1.1e-4 -1.64e-4,1.6e-4 l -10e-6,1e-5 c -4e-6,0 -1.3e-5,10e-6 -1.7e-5,10e-6 -0.0014,0.001 -0.0027,0.003 -0.0041,0.004 -8.63e-4,8e-4 -0.0017,0.002 -0.0026,0.002 -0.0022,0.002 -0.0044,0.004 -0.0064,0.007 -0.0012,0.001 -0.0026,0.003 -0.0036,0.004 v 10e-6 c -3.55e-4,4.9e-4 -5.86e-4,0.001 -9.23e-4,0.002 -1.7e-5,2e-5 -3.9e-5,3e-5 -5.5e-5,5e-5 -7.8e-5,1.1e-4 -1.15e-4,2.4e-4 -1.92e-4,3.4e-4 -7.67e-4,5.7e-4 -0.0016,0.001 -0.0027,0.003 -7.23e-4,0.001 -7.07e-4,0.002 -0.0013,0.003 -1e-6,0 2e-6,1e-5 0,1e-5 -3.96e-4,7.2e-4 -9.5e-4,0.001 -0.0013,0.002 -1.54e-4,2.9e-4 -2.27e-4,0.002 -3.75e-4,0.002 -1.66e-4,5.5e-4 -5.38e-4,0.001 -6.4e-4,0.002 -9.5e-5,2.4e-4 -3.77e-4,5e-4 -4.66e-4,7.4e-4 -8e-6,2e-5 -10e-6,1.9e-4 -1.7e-5,2.1e-4 -5.5e-5,1.4e-4 -1.76e-4,2.8e-4 -2.29e-4,4.2e-4 -0.0027,0.007 -0.0046,0.0252 -0.0042,0.0398 l 3.38e-4,0.0114 c -3e-4,0.007 -7.4e-4,0.008 -0.001,0.0166 -0.0014,0.0379 -0.0023,0.0951 -0.002,0.12731 2.45e-4,0.0312 7.58e-4,0.14049 0.0012,0.24368998 1.5e-5,0.004 -2.5e-5,0.004 -9e-6,0.008 l 3.66e-4,0.0897 2.55e-4,0.0999 1.65e-4,1.9e-4 v 1e-5 10e-6 l 9e-6,0.003 0.01163,0.0129 9e-6,10e-6 9e-6,1e-5 c 7.46e-4,0.001 0.0014,0.003 0.0022,0.004 1.5e-4,2e-4 2.4e-4,5.8e-4 3.93e-4,7.8e-4 0.0018,0.002 0.0041,0.004 0.0063,0.006 7.93e-4,6.6e-4 0.0015,0.001 0.0023,0.002 3.67e-4,2.8e-4 5.89e-4,6.1e-4 9.69e-4,8.9e-4 l 9e-6,10e-6 c 0.0011,7.9e-4 0.0026,0.002 0.0037,0.003 1.15e-4,8e-5 2.4e-4,1.7e-4 3.56e-4,2.6e-4 l 10e-6,10e-6 c 1e-6,0 7e-6,0 9e-6,0 l 9e-6,1e-5 9e-6,10e-6 9e-6,1e-5 9e-6,10e-6 h 9e-6 l 1e-5,1e-5 c 0.0015,0.001 0.0031,0.003 0.0045,0.004 0.0049,0.004 0.0096,0.007 0.01452,0.01 2e-6,0 7e-6,0 9e-6,0 v 1e-5 c 3.14e-4,1.6e-4 6.9e-4,1.9e-4 0.001,3.4e-4 6e-6,0 1.2e-5,10e-6 1.7e-5,10e-6 1.67e-4,5e-5 0.0014,9.8e-4 0.0014,9.3e-4 6e-6,-10e-6 6.5e-5,-3.2e-4 7.2e-5,-3.4e-4 3.99e-4,2.2e-4 8.47e-4,3.5e-4 0.0012,5.6e-4 0.002,0.001 0.0042,0.002 0.0062,0.003 7.97e-4,2.7e-4 0.0015,7.9e-4 0.0023,0.001 h 9e-6 c 1.27e-4,3e-5 4.48e-4,0 5.76e-4,3e-5 8.3e-5,2e-5 2.91e-4,10e-6 3.74e-4,3e-5 5.63e-4,1.5e-4 0.0011,4.2e-4 0.0017,5.5e-4 l -0.0082,9.3e-4 0.0163,-3.2e-4 c 0.0144,0.003 0.02963,0.003 0.04369,9e-4 0.0037,-2.7e-4 0.0077,-4.1e-4 0.01054,-0.001 h 9e-6 c 6.09e-4,-1.3e-4 10e-4,-4.9e-4 0.0016,-6.4e-4 2.16e-4,-6e-5 3.82e-4,-1.8e-4 5.95e-4,-2.4e-4 2e-6,0 6e-6,0 9e-6,0 2.55e-4,-7e-5 9.39e-4,-10e-6 0.0012,-7e-5 h 9e-6 c 7e-6,-10e-6 1.1e-5,-10e-6 1.8e-5,-10e-6 h 9e-6 c 0.0025,-7.1e-4 0.0047,-0.002 0.0069,-0.003 5.29e-4,-2.9e-4 0.0012,-4.6e-4 0.0017,-7.8e-4 3.09e-4,-1.9e-4 6.59e-4,-2.4e-4 9.69e-4,-4.5e-4 l 9e-6,-10e-6 c 3.81e-4,-2.5e-4 8.77e-4,-7.4e-4 0.0013,-0.001 0.0034,-0.002 0.0068,-0.005 0.01077,-0.008 6.7e-5,-7e-5 9.7e-5,-9e-5 1.64e-4,-1.5e-4 0.0017,-0.002 0.0028,-0.002 0.0042,-0.004 7.1e-5,-6e-5 1.5e-4,-1.2e-4 2.19e-4,-1.8e-4 0.0043,-0.003 0.0078,-0.006 0.01141,-0.007 0.0013,-2.7e-4 0.0031,5e-5 0.0046,8e-5 0.0015,3e-5 0.0027,-2.2e-4 0.0046,8e-5 h 9e-6 c 0.0015,2.5e-4 0.0041,9.1e-4 0.006,0.001 1.2e-5,0 2.5e-5,1e-5 3.7e-5,1e-5 l 1e-5,10e-6 h 9e-6 9e-6 c 3.14e-4,7e-5 6.71e-4,1.4e-4 9.96e-4,2.2e-4 0.0012,3.1e-4 0.0019,4.2e-4 0.0033,7.9e-4 h 9e-6 c 3.5e-4,1e-4 5.75e-4,6e-5 9.23e-4,1.5e-4 h 9e-6 c 0.0013,3e-4 0.0019,4e-4 0.0034,7.4e-4 h 9e-6 c 1.5e-5,0 3e-5,0 4.6e-5,10e-6 l 6.94e-4,1.6e-4 c 0.0037,8.9e-4 0.0059,7.9e-4 0.009,0.001 0.0039,6.5e-4 0.0079,0.002 0.01155,0.002 h 1e-5 c 1.73e-4,2e-5 2.38e-4,-2e-5 4.11e-4,-1e-5 4e-6,0 5e-6,0 9e-6,0 0.0013,8e-5 0.0032,6.2e-4 0.0044,6.2e-4 0.0058,3e-4 0.01124,4.5e-4 0.01483,-4.3e-4 h 9e-6 c 0.0021,-5.2e-4 0.003,-0.001 0.0042,-0.002 3e-6,0 6e-6,0 9e-6,0 0.0015,-3.5e-4 0.0025,-2e-4 0.0042,-6.2e-4 0.0093,-0.002 0.01417,-0.003 0.01878,-0.003 4e-6,0 1.3e-5,0 1.7e-5,0 1.01e-4,10e-6 2e-4,0 3.02e-4,10e-6 5.8e-5,1e-5 1.15e-4,0 1.73e-4,0 4.7e-4,7e-5 9.13e-4,-2e-5 0.0014,7e-5 h 10e-6 9e-6 l 9e-6,1e-5 c 9e-6,0 1.8e-5,-1e-5 2.8e-5,0 0.0017,5.1e-4 0.0034,7.5e-4 0.0052,0.001 h 9e-6 c 6.4e-5,2e-5 1.38e-4,8e-5 2.01e-4,1.1e-4 4.3e-5,10e-6 9.4e-5,5e-5 1.37e-4,7e-5 2.1e-5,10e-6 4.4e-5,3e-5 6.3e-5,4e-5 6e-6,0 1.3e-5,0 1.8e-5,10e-6 l 9e-6,10e-6 c 1.5e-5,0 3.2e-5,2e-5 4.6e-5,2e-5 5.8e-5,3e-5 1.26e-4,8e-5 1.83e-4,10e-5 3.62e-4,1.6e-4 7.75e-4,4.6e-4 0.0011,6.2e-4 9.16e-4,4.3e-4 0.0019,0.001 0.0029,0.002 0.0025,0.001 0.0052,0.002 0.0075,0.004 0.0037,0.003 0.0073,0.004 0.01089,0.005 3.2e-4,8.4e-4 0.0013,0.002 0.0049,0.003 0.01176,0.005 0.01872,0.005 0.04212,3e-4 l 0.0012,-2.4e-4 c 0.0033,-4.5e-4 0.0054,-9.1e-4 0.0078,-0.002 l 0.0097,-0.002 -0.0026,-4.2e-4 c 2.7e-4,-1.8e-4 0.0013,-3.1e-4 0.0015,-4.9e-4 0.0025,-0.003 0.0054,-0.004 0.0085,-0.004 0.0033,-5.8e-4 0.0073,1.8e-4 0.01195,0.002 0.0013,5.5e-4 0.0024,7.2e-4 0.0039,0.001 0.0015,7.6e-4 0.0034,0.002 0.005,0.003 0.0022,0.001 0.0043,0.003 0.0067,0.005 0.0092,0.008 0.01686,0.01 0.02887,0.0101 5e-6,0 1.3e-5,0 1.8e-5,0 0.01482,0.002 0.03108,0.001 0.04668,-0.004 2e-6,0 6e-6,0 9e-6,0 5.64e-4,-1.2e-4 0.0015,-1.5e-4 0.0021,-2.8e-4 7e-5,-2e-5 2.08e-4,-2e-5 2.82e-4,-4e-5 0.0011,-2.6e-4 0.0031,-2.6e-4 0.0041,-5.6e-4 0.004,-0.001 0.0076,-0.003 0.01124,-0.004 1.59e-4,-8e-5 3.36e-4,-2.2e-4 4.93e-4,-3e-4 v 0.002 l 0.01481,-0.0114 c 2.55e-4,-2e-4 4.25e-4,-4.5e-4 6.76e-4,-6.5e-4 0.0017,-10e-4 0.0037,-0.002 0.0053,-0.004 4.72e-4,-4.2e-4 8.12e-4,-9.7e-4 0.0013,-0.001 0.002,-0.002 0.0037,-0.004 0.0054,-0.006 l 9e-6,-1e-5 c 6e-6,-10e-6 1.3e-5,-10e-6 1.8e-5,-2e-5 0.0019,-0.002 0.0037,-0.004 0.0053,-0.006 5.34e-4,-7.7e-4 9.85e-4,-0.002 0.0015,-0.002 0.0021,-0.003 0.0045,-0.006 0.0059,-0.01 8.58e-4,-0.002 0.0015,-0.006 0.0022,-0.008 1e-6,-1e-5 -2e-6,-1e-5 0,-2e-5 6.42e-4,-0.002 0.0014,-0.003 0.0019,-0.005 l 9e-6,-1e-5 c 2.46e-4,-5e-5 5.03e-4,-3e-4 7.85e-4,-0.001 1.07e-4,-2.6e-4 -7e-5,-8.4e-4 10e-6,-0.001 v -10e-6 c 2.37e-4,-8.8e-4 7.51e-4,-0.002 9.6e-4,-0.003 0.0016,-0.007 0.0023,-0.0135 0.002,-0.0205 -2.37e-4,-0.007 1.24e-4,-0.0118 8.95e-4,-0.0162 3.59e-4,-0.002 7.99e-4,-0.002 0.0012,-0.003 1.77e-4,-5.9e-4 3.56e-4,-8.1e-4 5.31e-4,-0.001 5.59e-4,-0.002 0.0011,-0.003 0.0017,-0.004 9.12e-4,-0.001 0.0019,-0.002 0.0031,-0.003 0.0026,-0.002 0.0068,-0.002 0.01118,-0.002 0.0012,-10e-5 0.0018,-6.3e-4 0.0032,-6.5e-4 0.0017,3e-5 0.0049,4.6e-4 0.007,5.7e-4 0.006,4e-4 0.01144,6.5e-4 0.02054,0.002 0.0015,2.1e-4 0.0015,5.2e-4 0.0032,7.3e-4 0.0076,9.7e-4 0.01493,0.001 0.02195,0.002 3.38e-4,2e-5 7.9e-4,10e-5 0.0011,1.1e-4 2.31e-4,2e-5 5.48e-4,7e-5 7.76e-4,8e-5 5.4e-4,2e-5 0.0013,1.5e-4 0.0018,1.7e-4 2.14e-4,6.3e-4 0.0021,0.001 0.007,0.001 0.0073,9e-5 0.01083,-7.9e-4 0.0085,-0.002 0.0038,-3.3e-4 0.0083,-1.9e-4 0.01162,-9.6e-4 h 9e-6 c 0.0011,-2.4e-4 0.0019,-9.2e-4 0.0029,-0.001 0.0049,1.8e-4 0.0076,-9.2e-4 0.0061,-0.002 -3.6e-5,-3e-5 -1.24e-4,2e-5 -1.6e-4,-1e-5 0.0012,-4.7e-4 0.0024,-9.3e-4 0.0035,-0.001 h 9e-6 c 9e-6,-10e-6 1.8e-5,-10e-6 3.6e-5,-10e-6 6e-6,0 1.2e-5,-10e-6 1.7e-5,-10e-6 0.0026,-9.7e-4 0.0054,-0.002 0.0077,-0.003 9.13e-4,-4.7e-4 0.0018,-0.001 0.0027,-0.002 6.53e-4,-3.6e-4 0.0015,-5.7e-4 0.0021,-9.5e-4 0.0011,0.002 0.0039,-2e-4 0.0088,-0.006 7.53e-4,-9e-4 5.16e-4,-9.2e-4 10e-4,-0.002 0.0051,-0.005 0.0097,-0.0102 0.01327,-0.0167 v -10e-6 c 0.0015,-0.002 0.0033,-0.004 0.0044,-0.006 l 9e-6,-1e-5 c 0.0033,-0.006 0.005,-0.0126 0.0064,-0.0217 8.27e-4,-0.002 0.0018,-0.003 0.003,-0.003 2.63e-4,0 2.83e-4,-5.4e-4 5.11e-4,-6.3e-4 9.18e-4,-3.7e-4 0.0018,-9.8e-4 0.0021,-0.003 2e-6,-10e-6 -2e-6,-3e-5 0,-5e-5 1.8e-5,-1.2e-4 -5.3e-5,-3.7e-4 -3.5e-5,-5e-4 1.4e-5,-9e-5 -3.5e-5,-2.6e-4 -3.5e-5,-3.6e-4 2.17e-4,-0.002 2.15e-4,-0.004 -4.3e-4,-0.007 -0.0026,-0.0103 -0.0016,-0.0107 0.03267,-0.0117 0.01204,-3.6e-4 0.01988,-1.6e-4 0.02552,4.8e-4 5.62e-4,5e-5 0.0014,7e-5 0.0019,1.2e-4 0.0011,2e-4 0.0019,4.4e-4 0.0028,6.7e-4 4.78e-4,1.2e-4 10e-4,2.4e-4 0.0014,3.7e-4 4.81e-4,1.9e-4 0.0013,3.1e-4 0.0017,5.2e-4 1.42e-4,6e-5 1.06e-4,1.5e-4 2.19e-4,2.2e-4 7.68e-4,4.8e-4 9.85e-4,0.001 0.0012,0.002 -7.44e-4,0.002 -0.0012,0.003 -0.0029,0.005 -9.95e-4,0.002 -0.0019,0.003 -0.0038,0.006 -0.0025,0.003 -0.0061,0.008 -0.0093,0.0117 -9.2e-4,0.001 -0.002,0.002 -0.003,0.003 -3.5e-5,4e-5 -5.3e-5,7e-5 -8.8e-5,1.1e-4 -1.42e-4,1.5e-4 -2.66e-4,3e-4 -4.02e-4,4.6e-4 -0.0036,0.004 -0.0065,0.008 -0.01067,0.012 -1e-6,10e-6 2e-6,10e-6 0,10e-6 -0.01193,0.0125 -0.01902,0.0209 -0.0251,0.0302 -2e-6,10e-6 1e-6,10e-6 0,10e-6 -5.61e-4,8.2e-4 -0.0013,0.002 -0.0018,0.003 -2e-6,0 2e-6,0 0,1e-5 -0.0023,0.004 -0.0047,0.008 -0.0068,0.013 -9.66e-4,0.002 -0.0035,0.005 -0.0038,0.006 -1.23e-4,5.1e-4 -0.0011,0.003 -0.0013,0.004 -5.3e-5,1.8e-4 -3.48e-4,5.6e-4 -4.01e-4,7.3e-4 -0.0018,0.006 -0.0069,0.0197 -0.01114,0.0315 -6.56e-4,0.002 -0.001,0.003 -0.0017,0.005 -2.12e-4,6e-4 -1.77e-4,6.3e-4 -3.84e-4,0.001 -0.0024,0.007 -0.0038,0.0111 -0.0061,0.0174 -4.17e-4,0.001 -4.79e-4,0.002 -8.77e-4,0.003 -2.17e-4,5.7e-4 -4.46e-4,0.001 -6.58e-4,0.002 v 10e-6 c -9.85e-4,0.003 -0.0012,0.005 -0.002,0.007 -0.0026,0.008 -0.0053,0.0161 -0.0067,0.0227 -1e-6,10e-6 10e-7,2e-5 0,2e-5 -3.89e-4,0.002 -9.28e-4,0.004 -0.0012,0.006 -5.41e-4,0.003 -8.26e-4,0.007 -0.0011,0.01 -1.23e-4,0.002 -4.61e-4,0.004 -4.93e-4,0.006 -3.04e-4,0.006 -2.11e-4,0.0117 2.02e-4,0.0176 5.3e-5,9e-4 -3.6e-5,0.002 3.5e-5,0.003 10e-7,10e-6 -1e-6,2e-5 0,3e-5 1.8e-5,2.4e-4 8.8e-5,5e-4 1.06e-4,7.5e-4 7.1e-5,7.6e-4 3.5e-5,0.001 1.06e-4,0.002 1.06e-4,0.001 5.91e-4,0.002 7.22e-4,0.003 8e-6,7e-5 1.7e-5,1.5e-4 3.5e-5,2.1e-4 2.03e-4,0.002 4.83e-4,0.003 7.41e-4,0.005 2e-6,1e-5 -10e-7,2e-5 0,3e-5 2.73e-4,0.003 4.44e-4,0.006 7.96e-4,0.008 0.0028,0.019 0.0085,0.0347 0.02593,0.0778 0.005,0.0124 0.0078,0.0208 0.0091,0.0311 0.0013,0.0103 0.0011,0.0225 2.66e-4,0.0426 -5.26e-4,0.012 -0.0013,0.0185 -0.0021,0.0254 -0.0012,0.009 -0.0033,0.0149 -0.0069,0.0205 -0.0035,4.1e-4 -0.0084,0.005 -0.01131,0.0102 -0.0023,0.004 -0.0062,0.009 -0.01,0.0134 l -0.0054,0.005 -0.0028,0.003 c -0.0029,0.002 -0.0063,0.006 -0.008,0.006 -2.46e-4,1e-5 -0.0014,0.002 -0.0018,0.002 -0.0031,0.002 -0.0076,0.006 -0.0122,0.0117 -5.3e-5,5e-5 -1.06e-4,7e-5 -1.59e-4,1.2e-4 -7e-5,9e-5 -1.06e-4,1.6e-4 -1.82e-4,2.5e-4 -1.06e-4,1.4e-4 -2.19e-4,2.2e-4 -3.29e-4,3.6e-4 -2.19e-4,2.7e-4 -3.01e-4,4.9e-4 -5.11e-4,7.6e-4 -1.3e-5,2e-5 -1.8e-5,4e-5 -3.5e-5,6e-5 -0.0019,0.002 -0.0037,0.004 -0.0049,0.007 l -0.0014,10e-4 -9e-6,1e-5 -1.24e-4,1.2e-4 -0.004,0.004 0.0016,0.0536 9e-6,3.2e-4 c 10e-7,2e-5 -1e-6,2e-5 0,5e-5 10e-7,2e-5 -1e-6,2e-5 0,5e-5 l 9.6e-4,0.0324 c -1.99e-4,0.003 -1.59e-4,0.005 2.02e-4,0.007 l 4.21e-4,0.0141 0.0054,0.006 0.01151,0.0148 c 0.0092,0.0118 0.01801,0.0268 0.01981,0.0335 v 1e-5 c 1.6e-4,3.6e-4 4.11e-4,7.2e-4 6.04e-4,10e-4 4e-6,1e-5 1.3e-5,2e-5 1.7e-5,3e-5 5.3e-5,1.9e-4 2.73e-4,4e-4 3.38e-4,5.9e-4 7e-6,2e-5 3.5e-5,3e-5 3.5e-5,7e-5 1.7e-5,5e-5 7.1e-5,1.1e-4 8.9e-5,1.4e-4 5.59e-4,0.002 0.0017,0.003 0.0027,0.005 0.0014,0.002 0.0032,0.005 0.0054,0.007 0.0015,0.002 0.0032,0.003 0.0049,0.004 8.61e-4,5.4e-4 0.0014,10e-4 0.0023,0.002 h 9e-6 c 6.25e-4,3.3e-4 9.55e-4,6.5e-4 0.0015,9.6e-4 0.0035,0.002 0.0044,0.003 0.0068,0.005 7.61e-4,7.7e-4 0.0014,0.002 0.002,0.003 l 9e-6,1e-5 c 4e-6,0 6e-6,1e-5 9e-6,1e-5 l 10e-6,10e-6 c 2.28e-4,3.5e-4 5.58e-4,6e-4 7.67e-4,9.7e-4 v 1e-5 c 6.12e-4,10e-4 0.0012,0.003 0.0017,0.006 7.1e-5,2.2e-4 1.06e-4,6.2e-4 1.77e-4,8.5e-4 5.3e-5,2e-4 8.8e-5,5.4e-4 1.42e-4,7.4e-4 0.0011,0.007 0.0017,0.0243 0.0023,0.0445 10e-7,10e-6 0,2e-5 0,4e-5 1.88e-4,0.0207 6.07e-4,0.13271 9.78e-4,0.21911 -6.75e-4,0 -0.0012,10e-4 -0.0013,0.004 -1.41e-4,0.004 5.09e-4,0.005 0.0014,0.006 7.1e-5,0.0162 1.06e-4,0.0223 1.77e-4,0.04 -3.01e-4,0.003 -5.22e-4,0.007 -5.22e-4,0.0131 0,0.008 2.59e-4,0.0124 6.49e-4,0.0146 2.44e-4,0.0621 3.44e-4,0.0605 5.95e-4,0.13334 l 0.0017,0.4778 -0.01472,0.01 -0.0017,10e-4 -6.21e-4,4.1e-4 -9e-6,1e-5 h -9e-6 -9e-6 -10e-6 v 1e-5 h -9e-6 l -9e-6,1e-5 -1.06e-4,7e-5 c -1.1e-5,1e-5 -1.6e-5,2e-5 -3.5e-5,4e-5 l -1.8e-5,1e-5 c -0.0026,0.002 -0.0044,0.004 -0.0066,0.006 -7.92e-4,6.9e-4 -0.0016,10e-4 -0.0023,0.002 -0.0019,0.002 -0.0042,0.003 -0.0058,0.005 -1.1e-5,1e-5 -1.7e-5,3e-5 -3.6e-5,5e-5 l -9e-6,10e-6 h -9e-6 l -9e-6,1e-5 -9e-6,1e-5 -1e-5,1e-5 -9e-6,1e-5 c -5e-6,0 -1.3e-5,1e-5 -1.7e-5,3e-5 -1e-5,1e-5 -1.8e-5,2e-5 -3.6e-5,4e-5 -8.15e-4,10e-4 -0.0012,0.003 -0.002,0.004 v 1e-5 c -6e-6,1e-5 -1.2e-5,2e-5 -1.8e-5,4e-5 -3e-6,0 -5e-6,1e-5 -9e-6,1e-5 -1.7e-5,4e-5 -3.5e-5,7e-5 -7.1e-5,1.1e-4 -3e-6,0 -5e-6,1e-5 -9e-6,2e-5 -5.3e-5,7e-5 -7e-5,1.6e-4 -1.24e-4,2.3e-4 -1.7e-5,4e-5 -3.5e-5,7e-5 -5.3e-5,9e-5 -8.8e-5,1.4e-4 -1.59e-4,3.2e-4 -2.56e-4,4.6e-4 -0.0027,0.004 -0.0054,0.008 -0.0073,0.0132 -6.68e-4,0.002 -0.0022,0.004 -0.0031,0.006 -5.3e-5,1.2e-4 -1.41e-4,2.5e-4 -2.1e-4,3.8e-4 -0.0016,0.003 -0.0032,0.007 -0.0054,0.0101 -4.44e-4,6.8e-4 -6.39e-4,10e-4 -0.0011,0.002 -1.41e-4,2.2e-4 -2.01e-4,4.3e-4 -3.46e-4,6.4e-4 -3.6e-5,4e-5 -3.6e-5,9e-5 -7.1e-5,1.3e-4 -1.8e-5,3e-5 -5.3e-5,3e-5 -7.1e-5,7e-5 -0.0042,0.006 -0.009,0.0118 -0.01337,0.0154 l -0.01582,0.0132 -8.14e-4,0.0249 c -9.76e-4,0.009 -0.0015,0.0201 -0.0015,0.0355 0,0.007 4.28e-4,0.0129 6.86e-4,0.0191 7.1e-5,0.007 4.55e-4,0.0142 9.6e-4,0.0198 2.3e-4,0.004 2.6e-4,0.009 6.67e-4,0.0115 5.3e-5,2.7e-4 8.9e-5,2.2e-4 1.42e-4,4.8e-4 10e-7,1e-5 -1e-6,4e-5 0,6e-5 3e-6,1e-5 3.5e-5,5e-5 3.5e-5,7e-5 4.07e-4,0.002 6.88e-4,0.002 0.0011,0.004 1.06e-4,4.8e-4 2.74e-4,9.3e-4 3.93e-4,0.001 9.79e-4,0.004 0.0021,0.009 0.0026,0.009 3.6e-5,0 7.1e-5,-0.003 1.07e-4,-0.003 0.0015,0.004 0.0029,0.008 0.0051,0.0108 0.0012,0.002 0.0029,0.003 0.0043,0.005 0.0019,0.002 0.0039,0.005 0.0062,0.007 2.28e-4,1.9e-4 3.45e-4,4.7e-4 5.76e-4,6.6e-4 0.0037,0.003 0.0076,0.008 0.01102,0.0128 v 0 c 0.0028,0.004 0.0047,0.008 0.0064,0.0123 3.87e-4,9.4e-4 0.0012,0.002 0.0015,0.003 5.99e-4,0.002 0.002,0.004 0.003,0.006 -6.45e-4,5.1e-4 -8.18e-4,0.002 1.6e-4,0.004 9.83e-4,0.003 0.0061,0.007 0.01215,0.0122 2e-6,0 7e-6,0 9e-6,0 9.8e-4,8.5e-4 0.0019,0.002 0.0029,0.003 0.0056,0.004 0.01073,0.008 0.01441,0.0108 0.0014,0.001 0.0025,0.003 0.0036,0.005 0.0033,0.006 0.006,0.0642 0.0081,0.17561 3.59e-4,0.0189 7.67e-4,0.0201 0.0012,0.0377 6.19e-4,0.0243 7.29e-4,0.0477 0.0015,0.0675 2.07e-4,0.005 2.63e-4,0.007 4.56e-4,0.0124 9.94e-4,0.0282 0.0015,0.0489 0.0014,0.0612 -1.91e-4,0.0133 -8.19e-4,0.0238 -0.0038,0.0295 -0.0015,0.003 -0.0039,0.006 -0.0064,0.008 h -9e-6 -9e-6 c -1.5e-5,2e-5 -5.3e-5,4e-5 -7.1e-5,6e-5 -0.0049,0.004 -0.01057,0.008 -0.01373,0.0102 -0.0013,7.4e-4 -0.0027,0.003 -0.004,0.005 -0.0026,0.003 -0.0049,0.007 -0.0056,0.011 -0.0023,0.007 -0.0074,0.016 -0.013,0.0233 -2.37e-4,1.5e-4 -5.29e-4,1.1e-4 -7.59e-4,2.7e-4 -0.0018,10e-4 -0.0033,0.003 -0.004,0.005 -2.47e-4,6.5e-4 -8.15e-4,0.001 -0.0012,0.002 -0.0029,0.003 -0.0057,0.005 -0.0075,0.005 -0.0052,3.3e-4 -0.0091,0.007 -0.01222,0.0177 -7.1e-5,2.6e-4 -1.77e-4,3.8e-4 -2.47e-4,6.4e-4 -1.8e-5,7e-5 -5.4e-5,1.1e-4 -7.1e-5,2e-4 -1.8e-5,7e-5 -5.3e-5,10e-5 -7.1e-5,1.9e-4 -2.53e-4,9.2e-4 -6.28e-4,10e-4 -8.68e-4,0.002 -3.6e-5,1.4e-4 -5.3e-5,2.7e-4 -8.9e-5,4.1e-4 l -9e-6,1e-5 c -3.7e-4,10e-4 -5.96e-4,0.003 -9.23e-4,0.004 -8.74e-4,0.002 -0.0021,0.004 -0.0028,0.006 -1.59e-4,5.3e-4 -7.36e-4,10e-4 -8.31e-4,0.002 -1.24e-4,6.6e-4 -1.06e-4,0.005 -2.37e-4,0.005 -2.3e-4,0.001 -3.13e-4,0.002 -5.03e-4,0.003 -6.63e-4,3e-5 -0.0012,0.002 -0.0013,0.007 h -9e-6 c -7e-6,5.5e-4 7.1e-5,6.6e-4 8.9e-5,10e-4 -1.77e-4,0.002 -9.87e-4,0.004 -9.87e-4,0.007 0,0.003 6.61e-4,0.005 0.0016,0.006 -6.4e-4,0.0127 -0.0016,0.0211 -0.0016,0.037 v 0.0171 l -8.95e-4,0.0322 v 7e-5 l -1.8e-5,5.5e-4 -1.7e-5,7.6e-4 h 9e-6 l 0.01124,0.0107 0.0079,0.008 v 1e-5 c 0.0025,0.003 0.0043,0.005 0.0065,0.007 0.0024,0.003 0.0052,0.006 0.007,0.008 v 0 c 0.0035,0.005 0.0056,0.008 0.0056,0.01 0,8e-5 3.15e-4,4.6e-4 3.29e-4,5.6e-4 4.86e-4,0.003 0.0083,0.0141 0.01826,0.0245 l 5.77e-4,6e-4 0.0013,0.001 0.0034,0.004 0.0105,0.011 c 0.0019,0.007 0.0021,0.0288 0.0021,0.0541 l -3.38e-4,0.0248 c -5.75e-4,0.0418 -0.0027,0.0786 -0.0048,0.0818 -0.0028,0.004 -0.0062,0.004 -0.01376,-0.004 -0.0045,-0.004 -0.0098,-0.007 -0.01359,-0.008 -5.2e-4,-1.6e-4 -0.0014,-9.5e-4 -0.0018,-9.5e-4 h -9e-6 c -4.63e-4,0 -7.5e-4,-2.4e-4 -0.0012,-2.9e-4 -0.0019,-10e-4 -0.0047,-0.004 -0.0066,-0.005 -4.9e-4,-8.6e-4 -0.0012,-0.002 -0.0025,-0.003 -6.26e-4,-4.2e-4 -0.0015,-8.1e-4 -0.0023,-10e-4 -0.0012,-6.3e-4 -0.0027,-10e-4 -0.0043,-0.002 -1.07e-4,-4e-5 -1.81e-4,-7e-5 -2.83e-4,-1.2e-4 -3.75e-4,-1.8e-4 -7.79e-4,-3.3e-4 -0.0012,-5e-4 -0.0013,-4.7e-4 -0.0026,-8.8e-4 -0.004,-10e-4 -5.43e-4,-2.1e-4 -8.71e-4,-4.5e-4 -0.0014,-6.5e-4 -5.96e-4,-2.2e-4 -0.0019,-3.5e-4 -0.0025,-5.6e-4 -0.0039,-0.002 -0.0068,-0.003 -0.0089,-0.003 -0.0011,-3.9e-4 -0.0025,-10e-4 -0.0035,-10e-4 -5e-6,-1e-5 -1.7e-5,0 -3.5e-5,0 -1.1e-5,-1e-5 -1.8e-5,-2e-5 -3.5e-5,-2e-5 -0.0017,-4.9e-4 -0.0062,-4.4e-4 -0.0092,-7e-4 -7.85e-4,-1.2e-4 -0.0017,-9e-5 -0.0025,-2e-4 -2.01e-4,-1.2e-4 -8.8e-5,-1.4e-4 -3e-4,-2.5e-4 -0.0046,-0.003 -0.0095,-0.002 -0.01257,-7.8e-4 -0.0015,-7e-5 -0.0029,-2.9e-4 -0.0045,-3.1e-4 -0.01522,-10e-4 -0.02931,-0.002 -0.03661,-2.4e-4 -0.01872,5e-4 -0.03063,2.9e-4 -0.03613,-0.002 -0.0035,-0.004 -0.0057,-0.01 -0.0061,-0.0168 -5.3e-5,-0.002 -5.11e-4,-0.002 -5.11e-4,-0.004 -2e-6,-0.002 -5.18e-4,-0.003 -6.4e-4,-0.005 -4.21e-4,-0.006 -0.0014,-0.0111 -0.0031,-0.0162 -0.0011,-0.004 -0.0021,-0.008 -0.0034,-0.0101 -2.78e-4,-5.4e-4 -0.001,-10e-4 -0.0014,-0.002 -1.06e-4,-1.9e-4 -1.8e-4,-5.5e-4 -2.92e-4,-7.3e-4 -0.0013,-0.002 -0.0037,-0.004 -0.0056,-0.007 -0.0013,-0.002 -0.0022,-0.003 -0.0037,-0.005 h -9e-6 l -9e-6,-10e-6 -1e-5,-1e-5 c -7e-6,-1e-5 -1.7e-5,-1e-5 -3.5e-5,-2e-5 -6e-6,-1e-5 -1.3e-5,-1e-5 -1.8e-5,-2e-5 -4.51e-4,-4.8e-4 -7.21e-4,-10e-4 -0.0012,-0.002 -0.0019,-0.002 -0.0045,-0.004 -0.0067,-0.005 -0.0025,-0.002 -0.0047,-0.004 -0.0075,-0.006 -6e-6,0 -1.8e-5,-1e-5 -3.5e-5,-1e-5 -3.6e-5,-2e-5 -5.3e-5,-5e-5 -8.9e-5,-7e-5 -6.06e-4,-3.7e-4 -0.002,-5.3e-4 -0.0027,-8.9e-4 -3.17e-4,-1.5e-4 -8.76e-4,-2.4e-4 -0.0012,-4.1e-4 -8.27e-4,-4.6e-4 -0.0015,-7.5e-4 -0.0023,-10e-4 -0.0054,-0.003 -0.01049,-0.005 -0.01316,-0.005 -4.1e-4,-1.1e-4 -7.3e-4,-2.8e-4 -0.0012,-3.8e-4 -6.53e-4,-1.4e-4 -0.002,-10e-5 -0.0027,-2.3e-4 -0.0074,-10e-4 -0.01577,-0.002 -0.02399,-0.003 -0.003,-2.6e-4 -0.0058,-6.9e-4 -0.0088,-8e-4 -3.38e-4,-1e-5 -6.41e-4,-7e-5 -9.78e-4,-7e-5 -0.0033,-1.2e-4 -0.0058,3.6e-4 -0.009,3.8e-4 -0.0081,-1.4e-4 -0.01374,1.3e-4 -0.01727,7.7e-4 -0.0085,10e-4 -0.01498,0.003 -0.01797,0.005 -8.33e-4,6e-4 -0.0021,0.001 -0.0026,0.002 -0.001,10e-4 -0.0023,0.002 -0.0035,0.003 -7.46e-4,5.4e-4 -0.0011,5.1e-4 -0.0018,9.8e-4 -0.0057,0.002 -0.01635,0.002 -0.04174,6e-5 -0.0022,-4.5e-4 -0.0044,-10e-4 -0.0066,-0.002 -0.0056,-7.4e-4 -0.01104,-5.3e-4 -0.01642,-1.4e-4 -2.45e-4,1e-5 -5.04e-4,-4e-5 -7.49e-4,-1e-5 -1.35e-4,1e-5 -2.77e-4,-1e-5 -4.12e-4,0 -1.2e-5,0 -2.4e-5,-1e-5 -3.7e-5,-1e-5 -5.3e-5,0 -1.11e-4,-1e-5 -1.64e-4,0 -6.2e-5,0 -1.29e-4,-1e-5 -1.92e-4,0 l -0.01928,-10e-4 -0.01898,0.0153 c -0.0088,0.006 -0.01878,0.009 -0.02767,0.0108 -3.74e-4,-2e-4 -7.65e-4,-2e-4 -0.0011,-4.3e-4 -0.0046,-0.003 -0.0094,-0.005 -0.01437,-0.006 -6.95e-4,-2e-4 -0.0014,-1.4e-4 -0.0021,-3.2e-4 -0.0015,-3.9e-4 -0.0031,-4.5e-4 -0.0046,-7.2e-4 -5e-4,-9e-5 -9.97e-4,-1.6e-4 -0.0015,-2.3e-4 -2.11e-4,-4e-5 -4.19e-4,-7e-5 -6.3e-4,-1.1e-4 -5.27e-4,-7e-5 -10e-4,-1.9e-4 -0.0016,-2.5e-4 -0.0028,-0.001 -0.0066,-0.002 -0.01075,-0.002 -4.97e-4,-1e-5 -0.0011,-2.5e-4 -0.0016,-2.2e-4 -5.18e-4,4e-5 -0.0011,3.7e-4 -0.0016,4.4e-4 -0.0042,4.2e-4 -0.0084,10e-4 -0.01159,0.003 -3.11e-4,1.9e-4 -1.2e-4,4.3e-4 -2.92e-4,6.4e-4 -9.46e-4,2.8e-4 -0.002,3.2e-4 -0.0029,6.6e-4 -0.0078,0.003 -0.01345,0.006 -0.01514,0.008 -7.11e-4,2.8e-4 -0.0016,8.5e-4 -0.0023,0.001 -0.0036,10e-4 -0.0068,0.002 -0.0094,0.002 -7.62e-4,-2e-5 -0.0011,-5e-4 -0.0018,-6.3e-4 l -6.4e-4,-6.7e-4 c -5.29e-4,-8.5e-4 -0.0013,-0.002 -0.0013,-0.003 0,-0.003 -0.0089,-0.013 -0.01989,-0.0214 -1.47e-4,-10e-5 -2.21e-4,-1.6e-4 -3.66e-4,-2.6e-4 -8.03e-4,-6.5e-4 -0.0013,-10e-4 -0.0021,-0.002 -0.0017,-0.001 -0.0029,-0.002 -0.0044,-0.003 l -9e-6,-1e-5 -0.0061,-0.006 -7.3e-5,-9e-5 -9e-6,-1e-5 -9e-6,-1e-5 -4.6e-5,-5e-5 -6.4e-5,-7e-5 -0.0035,-0.004 -0.02267,9.7e-4 -0.0042,1.8e-4 -0.0011,5e-5 h -10e-6 c -0.02089,-8.5e-4 -0.0444,0.002 -0.05716,0.008 -7.16e-4,3.8e-4 -0.0014,0.001 -0.0021,0.001 -7.8e-4,3.7e-4 -0.0019,4.9e-4 -0.0026,8.9e-4 -7e-6,0 -1.9e-5,1e-5 -2.8e-5,2e-5 -4.2e-5,2e-5 -7.6e-5,5e-5 -1.18e-4,9e-5 -1.6e-5,1e-5 -3.9e-5,1e-5 -5.5e-5,1e-5 -0.0021,10e-4 -0.0035,0.003 -0.0054,0.004 -1.2e-5,10e-6 -2.5e-5,2e-5 -3.7e-5,4e-5 -5e-6,0 -1.3e-5,0 -1.8e-5,1e-5 h -9e-6 c -1.5e-5,2e-5 -3e-5,2e-5 -4.6e-5,4e-5 -4.9e-5,4e-5 -9.7e-5,7e-5 -1.47e-4,1.1e-4 -1.04e-4,7e-5 -1.98e-4,1.7e-4 -3.01e-4,2.4e-4 -0.0034,0.002 -0.007,0.005 -0.0099,0.008 -5.54e-4,6.3e-4 -0.001,0.002 -0.0016,0.002 -0.0018,10e-4 -0.0038,0.003 -0.0058,0.007 -0.0014,0.003 -0.0013,0.003 -0.0019,0.004 -0.0013,0.002 -0.0026,0.003 -0.0039,0.006 l -0.01042,0.0195 7.2e-5,0.0179 v 2e-5 1e-5 c -6.7e-5,10e-4 2.7e-5,0.002 9e-6,0.003 l 5.76e-4,0.14474 1.65e-4,0.0416 7.2e-5,0.0202 c 1.8e-5,0.005 3.6e-5,0.009 5.5e-5,0.0137 -0.0037,0.003 -0.0038,0.006 2.8e-5,0.008 2.28e-4,0.0587 4.37e-4,0.1134 6.31e-4,0.16508 6e-6,0.002 1.2e-5,0.004 1.8e-5,0.005 2.4e-5,0.007 5.8e-5,0.0154 8.1e-5,0.0216 1.7e-5,0.005 4.8e-5,0.0118 6.4e-5,0.0161 3.2e-5,0.008 -1.4e-5,0.006 1.7e-5,0.014 l 5.49e-4,0.1392 0.01639,0.0181 c 1.4e-5,2e-5 2.1e-5,2e-5 3.7e-5,4e-5 v 10e-6 c 2.3e-5,2e-5 4.1e-5,3e-5 6.4e-5,7e-5 l 2.01e-4,2.2e-4 c 2.65e-4,2.9e-4 5.39e-4,4.4e-4 8.04e-4,7.3e-4 0.0052,0.006 0.01004,0.0104 0.0149,0.0141 6.15e-4,4.7e-4 0.0013,6.1e-4 0.0019,10e-4 1.95e-4,0.001 0.002,0.002 0.0035,0.002 0.0142,0.009 0.03003,0.0112 0.05844,0.01 5.23e-4,-2e-5 7.35e-4,-5e-5 0.0012,-9e-5 6.33e-4,-3e-5 0.0011,4e-5 0.0017,0 0.0049,-2.7e-4 0.008,-6e-4 0.01165,-9e-4 0.0019,-1.6e-4 0.0046,-3e-4 0.0062,-4.9e-4 0.002,-2.3e-4 0.0033,-7.1e-4 0.005,-0.001 0.0037,-7e-4 0.0072,-0.002 0.0099,-0.003 0.0021,-10e-4 0.0043,-0.002 0.0063,-0.004 0.0011,-9e-4 0.0024,-0.002 0.0036,-0.004 0.0016,-10e-4 0.0031,-0.003 0.005,-0.004 9.74e-4,-9.7e-4 0.0011,-0.002 0.0019,-0.002 v -1e-5 c 0.01244,-0.0134 0.02108,-0.0182 0.03051,-0.0152 0.0032,0.001 0.0065,0.003 0.01011,0.006 1.14e-4,9e-5 3.38e-4,1.1e-4 4.57e-4,2e-4 2e-6,0 6e-6,0 9e-6,0 6.31e-4,6.2e-4 5.52e-4,9.8e-4 0.0021,0.002 0.0039,0.002 0.01228,0.004 0.01872,0.004 8.63e-4,-10e-6 6.25e-4,-10e-5 0.0014,-1.4e-4 0.0052,3.3e-4 0.0098,7e-5 0.01409,-7.8e-4 7.89e-4,7.9e-4 0.0018,0.001 0.003,0.001 0.0024,0 0.0057,-0.002 0.0073,-0.005 2.48e-4,-4e-4 -1.08e-4,-6.6e-4 -2.7e-5,-10e-4 6.56e-4,-5.1e-4 0.0019,-7.3e-4 0.0024,-0.001 0.0037,-0.004 0.0069,-0.006 0.01134,-0.006 h 9e-6 1e-5 c 3.43e-4,7e-5 8.4e-4,3.6e-4 0.0012,4.5e-4 0.0048,10e-4 0.0112,0.005 0.02329,0.0125 0.007,0.004 0.01237,0.007 0.01797,0.009 2.7e-5,1e-5 5.7e-5,4e-5 8.2e-5,6e-5 0.0084,0.003 0.01719,0.005 0.03118,0.005 5.8e-5,0 6.8e-5,-1e-5 1.27e-4,-1e-5 3.5e-5,0 4.8e-5,1e-5 8.1e-5,1e-5 0.01385,0 0.02171,-0.001 0.02605,-0.003 3.47e-4,-1.9e-4 9.34e-4,-2.8e-4 0.0012,-4.8e-4 l 9e-6,-10e-6 c 0.0013,-9e-4 0.0022,-0.002 0.0027,-0.003 0.0013,-0.003 0.0049,-0.005 0.009,-0.006 0.006,-2.5e-4 0.01482,0.003 0.02723,0.0115 10e-4,7.8e-4 0.0016,10e-4 0.0027,0.002 7.65e-4,5.2e-4 0.0016,8.3e-4 0.0024,10e-4 v 1e-5 c 1.23e-4,10e-4 0.0016,0.003 0.0048,0.004 0.0017,6.6e-4 0.0027,6.5e-4 0.0036,5.9e-4 0.0011,6.1e-4 0.0022,9.1e-4 0.0033,10e-4 2.21e-4,9e-5 5.85e-4,3.9e-4 7.96e-4,4.7e-4 v 0 c 1.59e-4,7e-5 5.16e-4,5e-5 6.86e-4,1.2e-4 0.0027,0.001 0.0061,0.002 0.009,0.002 0.0014,0.002 0.003,0.003 0.0044,0.003 0.0018,0 0.0023,-10e-4 0.0022,-0.002 0.0013,7e-5 0.0028,-9e-5 0.0042,-5e-5 0.0044,7e-5 0.0071,7.6e-4 0.01348,3.6e-4 0.001,-7e-5 0.0022,-3.7e-4 0.0033,-4.7e-4 3.91e-4,-2e-5 7.43e-4,-10e-5 0.0011,-1.4e-4 8.09e-4,-5e-5 0.0015,-2.2e-4 0.0023,-2.9e-4 0.0011,0.001 0.0024,0.003 0.0031,0.003 8.29e-4,0 0.0025,-0.002 0.0039,-0.004 0.0037,-4.5e-4 0.0076,-7.2e-4 0.01109,-10e-4 2.28e-4,-5e-5 4.58e-4,-3e-5 6.86e-4,-8e-5 0.0014,-2.9e-4 0.0024,-7.6e-4 0.0037,-10e-4 0.0055,-0.001 0.01068,-0.003 0.01404,-0.004 5.4e-5,-4e-5 1.07e-4,-9e-5 1.6e-4,-1.1e-4 5.3e-5,-3e-5 1.59e-4,-3e-5 2.19e-4,-7e-5 1.41e-4,-7e-5 2.26e-4,-1.6e-4 3.66e-4,-2.3e-4 h 9e-6 c 1.1e-5,-1e-5 3.6e-5,-2e-5 5.3e-5,-2e-5 3.6e-5,-2e-5 8.9e-5,-1e-5 1.06e-4,-4e-5 h 10e-6 9e-6 c 7.1e-5,-3e-5 1.06e-4,-7e-5 1.59e-4,-10e-5 1.8e-5,-2e-5 7.1e-5,-2e-5 1.06e-4,-4e-5 3.5e-5,-10e-6 5.3e-5,-3e-5 7.1e-5,-5e-5 7e-6,0 1.8e-5,-10e-6 3.5e-5,-10e-6 l 9e-6,-1e-5 c 1.3e-5,-10e-6 1.8e-5,-2e-5 3.6e-5,-3e-5 3.5e-5,-2e-5 7e-5,-4e-5 8.8e-5,-6e-5 5.41e-4,-2.8e-4 9.2e-4,-6.4e-4 0.0014,-9.2e-4 0.0099,-0.004 0.01745,-0.008 0.01745,-0.0108 0,-0.002 0.0037,-0.007 0.0083,-0.012 0.0046,-0.005 0.01105,-0.0175 0.0144,-0.0278 0.0029,-0.009 0.0074,-0.0178 0.01098,-0.0239 0.0025,-0.004 0.0043,-0.006 0.0057,-0.008 6.19e-4,-5.6e-4 0.0014,-0.001 0.0019,-0.002 0.0015,-1.8e-4 0.0036,1.6e-4 0.0062,0.001 0.0037,0.002 0.0077,0.003 0.01297,0.007 0.0018,0.002 0.0046,0.003 0.008,0.005 7e-6,0 1.2e-5,0 1.8e-5,10e-6 h 9e-6 c 3.06e-4,1.6e-4 6.13e-4,4.1e-4 9.23e-4,5.6e-4 2.07e-4,1.1e-4 4.12e-4,3e-4 6.21e-4,3.9e-4 4e-6,10e-6 1.3e-5,0 1.7e-5,0 6e-6,10e-6 1.3e-5,10e-6 1.8e-5,10e-6 l 9e-6,10e-6 c 7.1e-5,4e-5 1.24e-4,9e-5 1.82e-4,1.3e-4 h 9e-6 1e-5 c 1.76e-4,9e-5 4.12e-4,10e-5 5.85e-4,1.8e-4 1.8e-5,10e-6 5.3e-5,2e-5 8.8e-5,3e-5 l 1e-5,10e-6 c 1.59e-4,7e-5 2.19e-4,1.3e-4 3.83e-4,2.1e-4 0.0011,4.5e-4 0.0023,6.1e-4 0.0034,0.001 0.0044,0.002 0.0094,0.005 0.0094,0.006 0,0.002 0.01567,0.002 0.03293,10e-4 0.0059,10e-5 0.01159,-1.4e-4 0.01715,-9.1e-4 0.0017,-10e-5 0.003,-6.2e-4 0.0046,-8.2e-4 0.0027,-4.9e-4 0.0055,-7.4e-4 0.008,-10e-4 0.0014,-2.6e-4 0.0041,-2.7e-4 0.0052,-5.5e-4 0.01869,-0.005 0.02497,-0.0102 0.03276,-0.0288 1.1e-5,-4e-5 3.5e-5,-6e-5 5.3e-5,-7e-5 6.01e-4,-0.001 0.0011,-0.002 0.0016,-0.003 0.0014,-0.002 0.0029,-0.004 0.0041,-0.005 8.93e-4,-0.001 0.0017,-0.002 0.0034,-0.003 1.5e-5,-1e-5 5.3e-5,-1e-5 7.1e-5,-1e-5 1.8e-5,-1e-5 7.1e-5,-1e-5 1.06e-4,-2e-5 2.02e-4,-9e-5 6.7e-4,-9e-5 8.86e-4,-1.6e-4 0.0022,-7.3e-4 0.0049,-10e-4 0.0092,-10e-4 h 9e-6 c 6.58e-4,-4e-5 0.0029,1.8e-4 0.0036,1.6e-4 3.45e-4,-1e-5 0.0013,7e-5 0.0017,7e-5 0.01004,-1.1e-4 0.02382,5.5e-4 0.05019,0.002 0.0016,1.3e-4 0.01032,1.3e-4 0.01238,2.3e-4 0.01312,6.9e-4 0.01668,0.001 0.03136,0.002 0.04075,0.002 0.06098,0.002 0.07232,7.1e-4 0.08708,0.001 0.193668,0.002 0.321187,0.001 0.03772,-2.4e-4 0.07926,-9.1e-4 0.119124,-0.001 0.02283,-2.5e-4 0.04503,-4.5e-4 0.06827,-7.7e-4 3.71e-4,5.9e-4 0.0023,10e-4 0.0071,10e-4 0.0059,7e-5 0.0094,-4.8e-4 0.0093,-10e-4 0.01556,-2.3e-4 0.02987,-2.6e-4 0.04554,-5.3e-4 l 0.03092,-5.1e-4 0.168129,-10e-4 c 0.0047,0.002 0.0088,0.005 0.01101,0.008 l 0.0029,0.003 0.0055,0.005 h 9e-6 l 1.7e-5,2e-5 c 6.81e-4,6.6e-4 0.0014,10e-4 0.0021,0.002 l 3.67e-4,3.4e-4 c 0.0011,0.001 0.0021,0.002 0.0033,0.002 5.39e-4,4.6e-4 0.0011,8.4e-4 0.0016,10e-4 0.0032,0.003 0.0062,0.005 0.0095,0.007 2e-6,0 1.6e-5,10e-6 1.8e-5,10e-6 1.59e-4,1.1e-4 3.55e-4,1.3e-4 5.2e-4,2.2e-4 0.0052,0.003 0.0095,0.005 0.01328,0.006 3.01e-4,9e-5 5.73e-4,3.3e-4 8.78e-4,4.2e-4 1.6e-5,1e-5 3.5e-5,1e-5 5.3e-5,1e-5 1.41e-4,4e-5 3.34e-4,7e-5 4.84e-4,1.1e-4 8.07e-4,1.6e-4 0.0021,0.001 0.0028,0.001 0.0013,0 0.0024,5e-4 0.0036,7.1e-4 6.03e-4,1.4e-4 0.0014,6.9e-4 0.002,7.9e-4 h 9e-6 c 6.46e-4,10e-5 0.0017,10e-6 0.0024,8e-5 0.0027,0.001 0.0048,0.003 0.0054,0.004 0.0015,0.004 0.0046,0.005 0.01326,6.2e-4 0.005,-0.002 0.01418,-0.005 0.02271,-0.008 0.0046,-8.4e-4 0.0093,-0.002 0.01331,-0.003 0.0033,-9e-4 0.0055,-0.002 0.0083,-0.003 0.007,-0.002 0.0151,-0.004 0.01919,-0.004 0.0037,-2.9e-4 0.0069,0.001 0.01055,0.005 3.85e-4,4.3e-4 7.78e-4,8.7e-4 0.0012,0.001 0.0038,0.004 0.0081,0.0114 0.01402,0.0227 3.5e-5,7e-5 8.8e-5,10e-5 1.24e-4,1.8e-4 0.0034,0.007 0.0069,0.0127 0.01078,0.0183 4.8e-4,7e-4 9.13e-4,0.002 0.0014,0.002 0.0012,0.002 0.0026,0.003 0.0038,0.004 -9.02e-4,10e-4 -5.9e-4,0.003 0.0019,0.006 0.0028,0.003 0.0064,0.005 0.009,0.006 h 9e-6 l 9e-6,1e-5 c 2.11e-4,1.9e-4 4.11e-4,4e-4 6.21e-4,5.9e-4 l 9e-6,10e-6 c 1.42e-4,1.2e-4 3.06e-4,2.8e-4 4.57e-4,4.1e-4 4.17e-4,3.5e-4 9.3e-4,5.3e-4 0.0014,8.7e-4 5.3e-5,4e-5 1.23e-4,7e-5 1.77e-4,1.1e-4 l 9e-6,1e-5 c 8e-6,10e-6 1.7e-5,10e-6 3.5e-5,2e-5 l 9e-6,10e-6 c 0.0015,0.001 0.003,0.003 0.0045,0.004 4.66e-4,3.5e-4 8.64e-4,9.6e-4 0.0013,10e-4 1.06e-4,7e-5 1.59e-4,9e-5 2.65e-4,1.6e-4 4e-6,0 1.5e-5,2e-5 1.8e-5,2e-5 3.5e-5,2e-5 5.3e-5,7e-5 8.8e-5,9e-5 3.65e-4,2.6e-4 5.79e-4,3.6e-4 9.33e-4,6.2e-4 0.0012,8.2e-4 0.0024,0.002 0.0036,0.002 0.0026,0.002 0.0053,0.004 0.0075,0.005 2e-6,10e-6 7e-6,0 9e-6,0 0.0036,0.002 0.0069,0.003 0.01071,0.004 3e-6,0 6e-6,0 9e-6,0 0.0034,8.5e-4 0.01064,5.3e-4 0.01534,7.9e-4 0.004,5.7e-4 0.0079,10e-4 0.01228,10e-4 0.0077,2.9e-4 0.01561,-9e-5 0.02317,-8.9e-4 2.23e-4,-2e-5 4.19e-4,-5e-5 6.4e-4,-7e-5 0.0033,-3e-4 0.0059,-9.1e-4 0.0089,-10e-4 h 9e-6 c 0.0052,8.8e-4 0.01604,-9.1e-4 0.01786,-0.004 2.76e-4,-4.4e-4 -5.22e-4,-5.6e-4 -6.67e-4,-8.8e-4 8.76e-4,-4.5e-4 0.0027,-6.2e-4 0.0034,-0.001 l 9e-6,-10e-6 c 5.43e-4,-3.8e-4 0.0013,-5.6e-4 0.0018,-9e-4 5.26e-4,-3.1e-4 0.0011,-5.6e-4 0.0017,-8.3e-4 0.0025,-0.001 0.0067,-0.002 0.01181,-0.003 0.0013,-1.6e-4 0.0016,-6.3e-4 0.0031,-7.2e-4 0.0047,-3.5e-4 0.01359,1.4e-4 0.02101,3.7e-4 2.6e-4,5.9e-4 0.0016,0.001 0.0046,0.001 0.003,1.3e-4 0.0047,-3.1e-4 0.0056,-9.6e-4 4.26e-4,2e-5 5.52e-4,0 9.87e-4,2e-5 1.8e-4,10e-6 2.28e-4,-1e-5 4.12e-4,0 2.35e-4,10e-6 2.92e-4,0 5.3e-4,10e-6 9e-6,0 1e-5,1e-5 1.8e-5,1e-5 5.3e-5,0 7.1e-5,0 1.42e-4,0 2.08e-4,10e-6 2.83e-4,0 4.93e-4,10e-6 8.54e-4,5e-5 0.0011,-2e-5 0.002,3e-5 8.8e-5,1e-5 8.8e-5,0 1.82e-4,0 4.45e-4,4e-5 3.85e-4,-10e-6 8.22e-4,1e-5 0.0065,3.9e-4 0.0075,-3e-5 0.01221,1.9e-4 2.34e-4,10e-6 3.74e-4,-1e-5 6.04e-4,0 1.7e-5,10e-6 3.5e-5,0 5.3e-5,0 1.06e-4,10e-6 1.82e-4,10e-6 2.91e-4,10e-6 9.15e-4,4e-5 0.0016,1e-5 0.0024,4e-5 0.0035,1.2e-4 0.0072,1.8e-4 0.0099,1.4e-4 0.0035,-5e-5 0.01105,6.6e-4 0.01347,2.6e-4 4.84e-4,1.4e-4 6.91e-4,6e-4 0.0013,6e-4 0.0035,0 0.0085,-0.003 0.0113,-0.006 5.57e-4,-6.7e-4 2.29e-4,-8.5e-4 5.74e-4,-0.001 0.0015,-10e-4 0.0029,-0.002 0.0048,-0.004 0.01097,-0.0105 0.01611,-0.0124 0.02674,-0.01 0.01013,0.003 0.01668,0.003 0.02411,0.004 -1.24e-4,2e-5 -3.12e-4,-2e-5 -4.3e-4,0 -0.0058,0.001 -0.0011,0.002 0.01053,0.002 8.72e-4,0 9.8e-4,-9e-5 0.0018,-9e-5 0.0029,7e-5 0.0054,-1.4e-4 0.0079,-3.9e-4 7.34e-4,-9e-5 0.0019,-1.2e-4 0.0023,-2.4e-4 0.0012,-1.8e-4 0.0028,-1e-4 0.0039,-3.9e-4 h 1e-5 c 0.0011,-2.7e-4 0.0019,-8.8e-4 0.0029,-0.001 0.0024,-8.3e-4 0.0048,-0.002 0.0068,-0.003 0.008,-0.005 0.01436,-0.008 0.02003,-0.007 0.0028,3.4e-4 0.0055,0.001 0.0081,0.003 0.0015,0.001 0.0031,0.003 0.0046,0.005 2.37e-4,2.5e-4 4.74e-4,4.6e-4 7.13e-4,7.2e-4 8.81e-4,9.6e-4 0.0017,10e-4 0.0026,0.003 v 10e-6 h 9e-6 c 1e-6,0 -1e-6,0 0,10e-6 0.0044,0.006 0.0093,0.01 0.01471,0.0134 4.33e-4,7.8e-4 0.0013,0.002 0.0031,0.003 0.0056,0.004 0.0075,0.004 0.0079,0.003 h 9e-6 c 1.8e-5,1e-5 5.3e-5,1e-5 7.1e-5,2e-5 h 9e-6 l 9e-6,1e-5 c 7e-6,0 1.2e-5,10e-6 1.8e-5,10e-6 l 9e-6,10e-6 h 9e-6 v 1e-5 h 9e-6 1e-5 9e-6 c 6.61e-4,2.6e-4 0.0015,3.6e-4 0.0022,6e-4 0.004,0.001 0.0081,0.003 0.01368,0.004 0.0068,0.001 0.01431,0.002 0.02284,0.002 h 3.6e-5 5.3e-5 c 0.0043,0 0.0074,-3.3e-4 0.01103,-5.1e-4 0.0026,-1.2e-4 0.0057,-1.2e-4 0.0081,-3.7e-4 2.53e-4,-4e-5 6.26e-4,-1e-5 8.78e-4,-4e-5 h 9e-6 c 7.51e-4,-9e-5 0.0013,-3.4e-4 0.002,-4.5e-4 2.02e-4,-3e-5 3.58e-4,-10e-5 5.57e-4,-1.2e-4 0.0038,-2.5e-4 0.0063,-6.1e-4 0.0054,-0.001 0.0024,-5.5e-4 0.0051,-8.4e-4 0.0073,-0.002 h 9e-6 c 4.42e-4,-1.6e-4 8.34e-4,-5.1e-4 0.0013,-6.8e-4 5.52e-4,-2.1e-4 0.0015,-3e-4 0.002,-5.4e-4 0.0018,8.8e-4 0.0063,-0.003 0.01203,-0.007 0.0042,-0.003 0.0081,-0.005 0.01161,-0.009 0.002,-0.002 0.0041,-0.004 0.0058,-0.006 0.0014,-0.001 0.0029,-0.003 0.0041,-0.004 0.0031,-0.003 0.0056,-0.007 0.0077,-0.0108 0.0019,-0.003 0.0038,-0.006 0.0047,-0.008 1.23e-4,-3.4e-4 2.1e-4,-0.006 3.37e-4,-0.007 0.0043,-0.0197 0.0048,-0.0591 0.0043,-0.1271 0.0016,-0.098 0.0023,-0.2197 0.0013,-0.30473 0.0013,-0.0295 6.14e-4,-0.0572 -0.0022,-0.0753 -7.1e-5,-8.6e-4 -7.1e-5,-0.004 -1.42e-4,-0.005 4.65e-4,-0.0294 8.93e-4,-0.0626 0.0017,-0.0655 4.72e-4,-0.002 1.82e-4,-0.004 2.92e-4,-0.007 1.7e-5,-4.7e-4 1.23e-4,-10e-4 1.41e-4,-0.002 7.1e-5,-10e-4 5.24e-4,-0.003 4.94e-4,-0.004 3.02e-4,-1.6e-4 3.05e-4,-10e-4 2.47e-4,-0.002 -3.5e-5,-5.3e-4 -3.27e-4,-10e-4 -3.84e-4,-0.002 -3.73e-4,-0.002 -4.65e-4,-0.004 -0.0021,-0.01 -2.43e-4,-8.4e-4 -6.72e-4,-0.002 -9.41e-4,-0.002 -5.73e-4,-0.002 -0.0012,-0.004 -0.0019,-0.006 -7.1e-5,-1.6e-4 -3.6e-5,-2.5e-4 -1.06e-4,-4.2e-4 -3.6e-5,-9e-5 -7.1e-5,-1.4e-4 -1.07e-4,-2.4e-4 -8e-6,-2e-5 -9e-6,-3e-5 -1.7e-5,-5e-5 -1.24e-4,-3.2e-4 -2.21e-4,-4.8e-4 -3.47e-4,-8e-4 -0.0034,-0.01 -0.0078,-0.0192 -0.01289,-0.0244 -0.0012,-0.001 -0.0026,-0.002 -0.0038,-0.003 -0.0054,-0.006 -0.01234,-0.01 -0.01995,-0.0132 -0.0014,-7.4e-4 -0.003,-0.001 -0.0046,-0.002 -0.0012,-4.4e-4 -0.0025,-9.3e-4 -0.0037,-10e-4 -9.41e-4,-3.4e-4 -0.0018,-9.7e-4 -0.0028,-10e-4 -9.3e-4,-2.8e-4 -0.0022,-3.2e-4 -0.0032,-5.6e-4 -0.0013,-3.2e-4 -0.0022,-10e-4 -0.0036,-10e-4 -0.0015,-2.8e-4 -0.0046,-1.6e-4 -0.0064,-3.8e-4 -0.0014,-1.6e-4 -0.0023,-5.3e-4 -0.0038,-6.5e-4 h -10e-6 c -0.0043,-3.7e-4 -0.01024,-4.1e-4 -0.01579,-5.3e-4 -0.0018,-5e-5 -0.0033,-2.4e-4 -0.0052,-2.6e-4 -0.0011,-10e-6 -0.0014,-1.4e-4 -0.0025,-1.4e-4 -1.07e-4,0 -1.6e-4,0 -2.66e-4,0 h -7e-5 c -5.4e-5,0 -5.4e-5,1e-5 -1.07e-4,1e-5 h -1.41e-4 c -1.59e-4,0 -2.51e-4,-4e-5 -4.1e-4,-4e-5 -9.47e-4,0 -0.0014,4e-5 -0.0023,4e-5 -3.5e-5,0 -5.3e-5,-1e-5 -8.8e-5,-1e-5 -1.8e-5,0 -3.6e-5,0 -7.1e-5,0 -1.86e-4,0 -3.73e-4,-4e-5 -5.57e-4,-4e-5 -1.59e-4,0 -2.12e-4,1e-5 -3.66e-4,1e-5 -3.6e-5,0 -5.3e-5,-1e-5 -8.9e-5,-1e-5 -0.0034,0 -0.0051,1.1e-4 -0.0079,1.3e-4 h -6.4e-4 l -0.02531,-10e-4 -9.6e-4,9e-4 h -8.8e-5 l -0.01241,0.0114 c -0.0016,0.001 -0.0029,0.002 -0.0048,0.004 -4.25e-4,3.7e-4 -4.92e-4,4.9e-4 -9.15e-4,8.6e-4 -1.3e-5,1e-5 -1.4e-5,1e-5 -3.5e-5,3e-5 -1.59e-4,1.2e-4 -2.37e-4,1.8e-4 -3.93e-4,3e-4 -2.14e-4,1.8e-4 -3.11e-4,2.4e-4 -5.21e-4,4.1e-4 -0.01758,0.0147 -0.02194,0.0163 -0.03662,0.0133 -8.46e-4,-1.8e-4 -0.0017,-4e-5 -0.0026,-1.9e-4 -0.0017,-4.3e-4 -0.0028,-5.9e-4 -0.0048,-10e-4 -0.005,-10e-4 -0.01285,-10e-4 -0.02183,-8.1e-4 -0.0084,2.2e-4 -0.01566,10e-4 -0.02152,0.003 -3.18e-4,7e-5 -5.48e-4,6e-5 -8.68e-4,1.3e-4 -0.01837,0.004 -0.02634,0.005 -0.03282,0.003 -0.0011,-5.2e-4 -0.0022,-7.7e-4 -0.0034,-0.001 -0.0026,-0.002 -0.0054,-0.004 -0.0089,-0.007 -8.98e-4,-8.2e-4 -0.0018,-10e-4 -0.0027,-0.002 -0.0014,-10e-4 -0.0027,-0.002 -0.004,-0.003 -4.49e-4,-5.7e-4 -8.49e-4,-0.001 -0.0012,-0.002 -0.0015,-0.002 -0.0034,-0.004 -0.0034,-0.005 0,-0.004 -0.0084,-0.005 -0.01869,-0.004 -5.17e-4,5e-5 -0.0011,1.8e-4 -0.0016,2.3e-4 -0.0012,-9e-5 -0.002,-7.1e-4 -0.0031,-7e-4 -0.0053,9e-5 -0.0072,4.6e-4 -0.0063,10e-4 -0.0026,6.8e-4 -0.0054,0.002 -0.0082,0.003 -0.001,5e-4 -0.002,7e-4 -0.003,10e-4 -9.41e-4,4.3e-4 -0.0016,5.4e-4 -0.0026,10e-4 -3.5e-5,1e-5 -5.3e-5,1e-5 -8.8e-5,3e-5 -1.8e-5,2e-5 -3.5e-5,2e-5 -7.1e-5,4e-5 l -9e-6,1e-5 c -9e-6,0 -1.8e-5,0 -3.5e-5,1e-5 h -9e-6 c -1.1e-5,0 -1.7e-5,0 -3.6e-5,1e-5 -0.0067,0.003 -0.01019,0.004 -0.01369,0.004 -0.0015,7e-5 -0.0039,-8.2e-4 -0.0055,-0.001 -0.0024,-7.5e-4 -0.0061,-0.003 -0.0096,-0.005 -3.59e-4,-2.6e-4 -5.64e-4,-3.6e-4 -9.41e-4,-6.4e-4 -1.23e-4,-9e-5 -1.82e-4,-1.3e-4 -3.11e-4,-2.2e-4 -4.51e-4,-3.3e-4 -0.0013,-6.4e-4 -0.0018,-9.8e-4 -0.0025,-0.002 -0.0057,-0.003 -0.009,-0.005 -1.8e-5,-2e-5 -5.3e-5,-4e-5 -8.8e-5,-6e-5 -1.95e-4,-1e-4 -4.11e-4,-2.5e-4 -6.03e-4,-3.6e-4 -5.3e-5,-2e-5 -1.07e-4,-7e-5 -1.42e-4,-9e-5 -9e-6,-1e-5 -1.8e-5,-2e-5 -3.5e-5,-2e-5 -8.53e-4,-4.7e-4 -0.0018,-10e-4 -0.0027,-0.002 -2.32e-4,-1.6e-4 -4.78e-4,-4.4e-4 -7.13e-4,-5.9e-4 v -1e-5 c -3.41e-4,-2.2e-4 -8.47e-4,-2.8e-4 -0.0012,-4.8e-4 -9.92e-4,-5e-4 -0.0021,-7.9e-4 -0.0031,-10e-4 -0.0012,-4.8e-4 -0.0022,-10e-4 -0.0036,-10e-4 -2.06e-4,-2.2e-4 3.37e-4,-3.7e-4 -2.66e-4,-6.2e-4 -5.62e-4,-2.2e-4 -0.0014,1.4e-4 -0.002,0 -8.14e-4,-2.2e-4 -0.0016,-6.3e-4 -0.0024,-8.2e-4 -5.16e-4,-1.1e-4 -0.0016,-7e-5 -0.0022,-1.8e-4 -6.15e-4,-1.6e-4 -0.0014,-5.6e-4 -0.002,-6.9e-4 -0.01155,-0.003 -0.02977,-0.003 -0.04698,-10e-4 -0.0059,5.2e-4 -0.01128,10e-4 -0.01661,0.002 -8.56e-4,1.3e-4 -0.0016,2.4e-4 -0.0024,3.7e-4 -9.76e-4,1.9e-4 -0.0022,2.6e-4 -0.0031,4.6e-4 -0.003,6.6e-4 -0.005,0.002 -0.0076,0.002 -1.8e-5,1e-5 -5.4e-5,1e-5 -7.1e-5,1e-5 -3.6e-5,1e-5 -7.1e-5,4e-5 -1.06e-4,6e-5 -4.99e-4,1.5e-4 -9.48e-4,3.1e-4 -0.0014,4.7e-4 -0.0019,6.5e-4 -0.0052,10e-4 -0.0066,0.002 -3.27e-4,1.8e-4 -6.56e-4,5.4e-4 -9.87e-4,7.2e-4 -7.1e-5,4e-5 -2.16e-4,6e-5 -2.83e-4,9e-5 -0.0022,10e-4 -0.0045,0.003 -0.0068,0.005 -0.004,0.003 -0.0078,0.005 -0.01158,0.008 -1.2e-5,1e-5 -1.8e-5,2e-5 -3.5e-5,4e-5 -1.2e-5,1e-5 -1.8e-5,1e-5 -3.6e-5,3e-5 -8.49e-4,6.6e-4 -0.0016,10e-4 -0.0025,0.002 -4.74e-4,3.8e-4 -10e-4,7.3e-4 -0.0015,10e-4 -3.33e-4,2.8e-4 -7.43e-4,5.4e-4 -0.0011,8.2e-4 -4.27e-4,3.6e-4 -6.48e-4,6.8e-4 -0.0011,10e-4 -3.5e-5,3e-5 -8.8e-5,7e-5 -1.23e-4,1e-4 -2.71e-4,2.5e-4 -4.13e-4,4.5e-4 -6.76e-4,7e-4 -3.1e-4,2.8e-4 -5.13e-4,5.2e-4 -8.14e-4,8e-4 -0.0011,10e-4 -0.002,0.002 -0.003,0.003 -0.0012,0.001 -0.0026,0.002 -0.0036,0.004 -1.94e-4,2.3e-4 -5.46e-4,5.1e-4 -7.32e-4,7.3e-4 -0.0012,0.002 -0.0013,0.002 -0.002,0.004 v 1e-5 c -6e-6,1e-5 -1.8e-5,1e-5 -3.5e-5,3e-5 -6.03e-4,10e-4 -0.0019,0.002 -0.0019,0.003 l -9e-6,1e-5 c 0,0.002 -0.0018,0.004 -0.0036,0.005 l -1e-5,1e-5 c -3.69e-4,1.1e-4 -6.24e-4,4.5e-4 -0.001,4.5e-4 h -9e-6 c -3.5e-5,0 -5.3e-5,9e-5 -8.8e-5,9e-5 -3.6e-5,0 -5.3e-5,7e-5 -8.9e-5,7e-5 -0.0025,2.2e-4 -0.0045,0.004 -0.0045,0.008 0,0.003 -0.0012,0.006 -0.0022,0.008 -8e-4,10e-4 -0.0017,0.002 -0.0027,0.002 h -9e-6 c -0.0024,0 -0.0029,0.005 -0.0022,0.0114 -1.42e-4,0.002 -4.76e-4,0.004 -4.02e-4,0.006 2.16e-4,0.007 -2.44e-4,0.0102 -0.0013,0.0127 -0.0019,0.003 -0.007,0.004 -0.01527,0.004 -0.0046,-2.8e-4 -0.01194,-10e-4 -0.01901,-0.002 -0.0065,-0.002 -0.01441,-0.003 -0.02317,-0.003 -9.27e-4,-1.8e-4 -0.0018,-2.9e-4 -0.003,-3.8e-4 -0.0022,-1.5e-4 -0.0043,-6e-5 -0.0065,-8e-5 -4.46e-4,10e-6 -8.53e-4,2e-5 -0.0013,4e-5 -1.8e-4,0 -3.2e-4,-1e-5 -5.02e-4,0 -0.0021,-7e-5 -0.0041,-1e-5 -0.0064,1.2e-4 -1.24e-4,1e-5 -2.23e-4,4e-5 -3.46e-4,6e-5 -3.6e-5,0 -5.4e-5,1e-5 -8.9e-5,1e-5 -0.0048,2.9e-4 -0.0098,8.2e-4 -0.01488,0.002 -3.89e-4,9e-5 -7.64e-4,2e-4 -0.0012,3e-4 -6.32e-4,1.4e-4 -0.0014,1.4e-4 -0.002,3e-4 -0.0014,3.8e-4 -0.0028,9.8e-4 -0.0041,10e-4 -0.0024,6.6e-4 -0.0053,10e-4 -0.0072,0.002 -0.0029,10e-4 -0.0066,0.004 -0.0101,0.006 -9e-6,0 -1.7e-5,1e-5 -3.5e-5,1e-5 -0.0029,0.002 -0.0051,0.004 -0.0079,0.006 -0.0051,0.004 -0.0099,0.008 -0.01252,0.0117 -0.02007,0.0225 -0.02355,0.0117 -0.02284,-0.0705 9.8e-4,-0.0441 0.0028,-0.0673 0.0061,-0.0673 0.0038,0 0.0081,-0.003 0.01199,-0.008 3.28e-4,-3.9e-4 6.96e-4,-5.8e-4 10e-4,-0.001 1.7e-5,-10e-6 3.5e-5,-7e-5 5.3e-5,-8e-5 3.5e-5,-6e-5 7e-5,-9e-5 1.06e-4,-1.5e-4 3.5e-5,-5e-5 7.1e-5,-7e-5 1.06e-4,-1.2e-4 3.15e-4,-4.3e-4 5.43e-4,-0.001 8.51e-4,-0.001 1.23e-4,-1.9e-4 2.3e-4,-4.3e-4 3.57e-4,-6.2e-4 3e-6,0 6e-6,-10e-6 9e-6,-10e-6 3.1e-4,-4.2e-4 7.23e-4,-7e-4 0.001,-0.001 1.1e-5,-2e-5 3.6e-5,-4e-5 5.3e-5,-5e-5 2.28e-4,-3.6e-4 3.12e-4,-10e-4 5.31e-4,-0.002 2.49e-4,-4.3e-4 5.07e-4,-8.3e-4 7.5e-4,-0.001 l -1.82e-4,0.004 0.0016,-0.006 9e-6,-2e-5 c 0.0019,-0.004 0.0036,-0.008 0.0046,-0.0129 v -10e-6 c 5.09e-4,-0.002 0.0019,-0.004 0.0028,-0.006 5.64e-4,-10e-4 9.34e-4,-0.003 0.0016,-0.004 10e-4,-10e-4 0.0019,-0.002 0.0031,-0.004 0.0021,-0.002 0.0043,-0.005 0.007,-0.006 h 9e-6 c 1.24e-4,-6e-5 1.98e-4,-1.6e-4 3.29e-4,-2.3e-4 0.0022,-10e-4 0.0045,-0.002 0.0072,-0.005 2.35e-4,-2.1e-4 4.49e-4,-5.2e-4 6.86e-4,-7.3e-4 0.002,-0.001 0.0046,-0.003 0.0063,-0.004 5e-6,0 1.4e-5,0 1.8e-5,-1e-5 h 9e-6 l 9e-6,-1e-5 c 5.98e-4,-6.5e-4 8.86e-4,-0.002 0.0014,-0.002 3.15e-4,-3.6e-4 6.21e-4,-7.8e-4 9.24e-4,-10e-4 9.21e-4,-10e-4 0.0014,-0.003 0.0022,-0.004 5.3e-5,-9e-5 8.8e-5,-1.5e-4 1.59e-4,-2.3e-4 0.0032,-0.004 0.0054,-0.008 0.0069,-0.0129 8.03e-4,-0.002 0.0017,-0.004 0.0022,-0.007 4.87e-4,-0.003 2.97e-4,-0.0117 5.49e-4,-0.0159 3e-6,-5e-5 1.4e-5,-9e-5 1.7e-5,-1.4e-4 3.6e-5,-5.8e-4 1.77e-4,-8.8e-4 2.11e-4,-0.001 1.23e-4,-0.002 1.7e-5,-0.005 8.8e-5,-0.008 2.35e-4,-0.008 8.6e-4,-0.0119 8.6e-4,-0.0252 v -0.03 l 9e-6,-0.0277 -3.29e-4,-3.4e-4 v -10e-4 l -0.002,-0.002 v -1e-4 l -0.0011,-10e-4 -0.02364,-0.0253 c -0.0025,-0.003 -0.005,-0.005 -0.0076,-0.008 -0.0014,-0.002 -0.0046,-0.005 -0.0051,-0.006 -2.23e-4,-4.2e-4 -0.0023,-0.003 -0.0023,-0.003 v -1e-5 c 0,-1.2e-4 -0.0011,-7.8e-4 -0.0012,-9.5e-4 -9.77e-4,-0.002 -0.0039,-0.004 -0.0083,-0.008 -9.6e-4,-7.4e-4 -0.0012,-10e-4 -0.0023,-0.002 -0.0011,-6.9e-4 -0.0016,-7.1e-4 -0.0025,-0.001 -8.08e-4,-5.3e-4 -0.0013,-10e-4 -0.0022,-0.002 h -9e-6 v -1e-5 l -0.0017,-10e-4 c -6.49e-4,-4e-4 -0.0015,-0.001 -0.0022,-0.002 -7.62e-4,-5.5e-4 -0.0016,-10e-4 -0.0023,-0.002 -0.0024,-0.002 -0.0042,-0.003 -0.0057,-0.005 -1.84e-4,-2.7e-4 -3.08e-4,-6.7e-4 -4.76e-4,-9.6e-4 -10e-4,-0.002 -0.0018,-0.004 -0.0024,-0.006 -0.0015,-0.007 -0.0016,-0.0191 -0.0016,-0.0427 v -1.6e-4 c 0,-5.9e-4 1.7e-5,-8.3e-4 1.7e-5,-10e-4 4e-6,-0.0207 4.72e-4,-0.0313 0.0018,-0.0404 0.0011,-0.007 0.0028,-0.0132 0.0062,-0.0199 0.0027,-0.005 0.0062,-0.0113 0.011,-0.0193 3.66e-4,-6.1e-4 5.55e-4,-10e-4 9.14e-4,-0.002 0.0022,-0.004 0.0035,-0.006 0.0054,-0.01 1.6e-4,-2.7e-4 2.16e-4,-3.7e-4 3.84e-4,-6.5e-4 0.004,-0.007 0.0058,-0.01 0.0052,-0.009 0.0045,-0.008 0.0085,-0.0165 0.01163,-0.0236 0.0022,-0.002 0.0042,-0.004 0.0042,-0.007 0,-7.6e-4 -4.91e-4,-10e-4 -8.5e-4,-0.002 0.0031,-0.008 0.0056,-0.0169 0.0072,-0.0253 0.0012,-0.005 0.0026,-0.0102 0.0034,-0.0157 0.0034,-0.017 0.0047,-0.0339 0.0042,-0.0506 0,-3e-5 9e-6,-7e-5 9e-6,-10e-5 0,-4e-5 -9e-6,-7e-5 -9e-6,-9e-5 -2e-6,-4e-5 1e-6,-7e-5 0,-1.3e-4 0,-7e-5 9e-6,-1.4e-4 9e-6,-2.1e-4 0,-7e-5 -1.8e-5,-1.4e-4 -1.8e-5,-2.2e-4 -1.24e-4,-0.004 7.1e-5,-0.007 -2.1e-4,-0.0106 -1.07e-4,-10e-4 -4.28e-4,-0.003 -5.57e-4,-0.004 -3.6e-5,-4.4e-4 -1.42e-4,-8.7e-4 -1.93e-4,-10e-4 -1.24e-4,-0.003 -1.42e-4,-0.006 -3.58e-4,-0.009 -7.42e-4,-0.008 -0.0021,-0.0155 -0.0045,-0.0235 -3.4e-4,-0.001 -3.36e-4,-0.003 -7.13e-4,-0.004 -5.83e-4,-0.002 -0.0017,-0.004 -0.0024,-0.006 -0.0011,-0.003 -0.0028,-0.008 -0.0044,-0.0121 -0.0021,-0.006 -0.0046,-0.0127 -0.0074,-0.0192 -0.0024,-0.006 -0.0036,-0.009 -0.0058,-0.0136 -2.28e-4,-4.8e-4 -5.2e-4,-0.001 -7.5e-4,-0.002 v -1e-5 c -2.53e-4,-5.3e-4 -6.59e-4,-9.5e-4 -9.14e-4,-10e-4 -3.5e-4,-7.1e-4 -5.64e-4,-10e-4 -9.23e-4,-0.002 -3.7e-4,-7.3e-4 -6.12e-4,-9.9e-4 -9.69e-4,-0.002 -1.42e-4,-2.8e-4 -2.43e-4,-4.9e-4 -3.75e-4,-7.6e-4 -7.77e-4,-0.002 -0.0013,-0.003 -0.002,-0.004 -0.0016,-0.003 -0.0044,-0.01 -0.0052,-0.0106 -0.0013,-0.001 -0.0054,-0.007 -0.0093,-0.0122 l -2.19e-4,-3.4e-4 -1.42e-4,-2.3e-4 -0.0012,-0.002 c -0.007,-0.0109 -0.0077,-0.0464 -0.0076,-0.36201 6.76e-4,-0.13576 2.04e-4,-0.28756 -0.0014,-0.38382 l -1.24e-4,-0.0144 c 1.98e-4,-0.1381 0.0014,-0.21034 0.0064,-0.21883 l 0.009,-0.0147 c 0.0013,-0.002 0.003,-0.006 0.0045,-0.008 0.0024,-0.004 0.0047,-0.008 0.0071,-0.0128 0.0028,-0.005 0.0056,-0.01 0.0081,-0.0148 9.6e-4,-0.002 0.0018,-0.004 0.0027,-0.006 0.0058,-0.0121 0.01065,-0.024 0.01465,-0.0358 1.77e-4,-5.1e-4 3.4e-4,-10e-4 5.12e-4,-0.002 0.0037,-0.0109 0.0065,-0.0217 0.0086,-0.0323 7.66e-4,-0.004 0.0015,-0.007 0.0021,-0.0105 4.25e-4,-0.003 6.88e-4,-0.006 9.96e-4,-0.009 0.0013,-0.002 0.0015,-0.009 0.0015,-0.0163 1.07e-4,-0.002 7.5e-4,-0.005 7.5e-4,-0.007 0,-1.5e-4 -5.3e-5,-4.2e-4 -5.3e-5,-5.7e-4 2e-6,-7e-5 5.3e-5,-1.2e-4 5.3e-5,-1.9e-4 0,-1.4e-4 -8.8e-5,-1.6e-4 -8.8e-5,-3.1e-4 -5.3e-5,-0.004 -7.48e-4,-0.0104 -0.0015,-0.0164 1.24e-4,-5.4e-4 2.07e-4,-3.2e-4 3.58e-4,-9.5e-4 0.0014,-0.006 2.61e-4,-0.0101 -0.0018,-0.0117 -8.36e-4,-0.006 -0.002,-0.0124 -0.0036,-0.0182 -0.004,-0.0193 -0.0089,-0.0365 -0.01208,-0.0387 -0.0019,-0.001 -0.0071,-0.01 -0.01173,-0.0187 -1.59e-4,-3e-4 -5.98e-4,-9.4e-4 -7.68e-4,-10e-4 -0.0058,-0.0108 -0.01229,-0.022 -0.01976,-0.0338 l -0.01065,-0.0169 c -0.005,-0.0111 -0.0053,-0.0239 -0.0051,-0.0668 3.2e-4,-0.12317 0.0019,-0.14325 0.01179,-0.14853 0.0035,-0.002 0.0079,-0.008 0.01192,-0.014 4.3e-4,-5.8e-4 9.82e-4,-0.001 0.0014,-0.002 v -1e-5 c 9e-6,-1e-5 1.7e-5,-2e-5 3.5e-5,-4e-5 0.0021,-0.003 0.0031,-0.005 0.0043,-0.008 0.0045,-0.009 0.01481,-0.0225 0.02437,-0.0315 0.0014,-0.001 0.0024,-0.002 0.0039,-0.003 5.15e-4,-5.2e-4 6.57e-4,-10e-4 0.0011,-0.002 l 0.0022,-0.002 0.0127,-0.0113 v -3e-5 h 9e-6 l -9e-6,-3.2e-4 h 9e-6 l 3.75e-4,-0.0553 c 1.77e-4,-0.0252 -5.01e-4,-0.0405 -0.0022,-0.0528 -3.5e-5,-0.002 -1.41e-4,-0.008 -1.59e-4,-0.009 -10e-7,-3e-5 -7.1e-5,-1.2e-4 -7.1e-5,-1.6e-4 l -1.59e-4,-0.006 -1.06e-4,-0.004 -9e-6,-1e-5 -0.01819,-0.0192 c -10e-4,-0.001 -0.0016,-0.002 -0.0027,-0.003 -0.0058,-0.006 -0.01461,-0.0153 -0.02287,-0.0241 -3.93e-4,-4.2e-4 -7.18e-4,-7.8e-4 -0.0011,-0.001 -0.0027,-0.005 -0.0072,-0.0103 -0.01365,-0.0162 -0.008,-0.007 -0.01182,-0.0136 -0.01399,-0.02 l 3.2e-4,-0.0512 c 4.72e-4,-0.0763 0.0015,-0.079 0.02648,-0.0587 0.0021,0.002 0.0045,0.003 0.0068,0.005 0.0013,0.001 0.0012,0.002 0.0026,0.003 8.5e-4,6.3e-4 0.0017,7e-4 0.0025,0.001 0.0068,0.005 0.01245,0.007 0.01903,0.009 2.63e-4,8e-5 5.39e-4,1.4e-4 8.04e-4,2.1e-4 8.3e-4,2.5e-4 0.0019,9e-4 0.0026,0.001 0.0012,2.7e-4 0.0035,7e-5 0.0051,2.1e-4 0.0013,1.8e-4 0.0034,1.4e-4 0.0048,1.8e-4 1e-5,0 1.7e-5,10e-6 3.5e-5,10e-6 2.39e-4,1e-5 4.74e-4,2e-5 7.13e-4,3e-5 0.0049,1.7e-4 0.01031,-3.7e-4 0.0158,-0.001 5.38e-4,-9e-5 0.0011,-1.5e-4 0.0016,-2.4e-4 0.0031,-2.9e-4 0.0063,-3.4e-4 0.0091,-7.8e-4 0.0041,-6.5e-4 0.0063,-0.002 0.0092,-0.002 0.01094,-0.002 0.02171,-0.005 0.02889,-0.005 0.0019,-2.3e-4 0.0028,-1.8e-4 0.0043,-3.7e-4 0.0064,-2.1e-4 0.01067,7e-4 0.01342,0.002 6e-6,0 1.2e-5,1e-5 1.7e-5,1e-5 6.85e-4,6.3e-4 0.0016,7e-4 0.0022,0.002 v 10e-6 c 1.06e-4,1.9e-4 1.98e-4,6.5e-4 3.11e-4,8.5e-4 5.92e-4,0.001 0.0011,0.003 0.0016,0.005 0.002,0.006 0.0044,0.0146 0.0058,0.026 1.41e-4,0.001 5.15e-4,0.002 6.67e-4,0.003 1e-6,10e-6 7e-6,2e-5 9e-6,3e-5 3.5e-5,1.8e-4 5.3e-5,2.6e-4 8.8e-5,4.5e-4 2.3e-4,0.001 3.4e-4,0.002 5.86e-4,0.003 1.41e-4,8e-4 6.17e-4,0.002 7.96e-4,0.002 5.39e-4,0.003 0.0011,0.005 0.0018,0.008 -1.59e-4,9.2e-4 -5.3e-5,0.002 5.11e-4,0.002 0.0011,0.003 0.0027,0.007 0.0042,0.009 8.5e-4,0.002 0.0022,0.003 0.0032,0.005 3.14e-4,5.4e-4 6.45e-4,0.001 9.69e-4,0.002 1.8e-4,2.9e-4 2.92e-4,6.4e-4 4.76e-4,9.3e-4 v 1e-5 c 1.59e-4,2.6e-4 3.83e-4,4.6e-4 5.48e-4,7.1e-4 0.0016,0.003 0.003,0.005 0.0048,0.008 5.3e-5,6e-5 8.9e-5,1.6e-4 1.42e-4,2.2e-4 5.3e-5,5e-5 1.24e-4,9e-5 1.77e-4,1.5e-4 0.0067,0.009 0.01384,0.0166 0.01885,0.0169 0.003,1.8e-4 0.0089,0.004 0.01299,0.008 0.0038,0.004 0.01491,0.006 0.02984,0.008 7.89e-4,1.8e-4 0.0016,3.3e-4 0.0024,4.9e-4 0.0046,9.4e-4 0.0092,0.001 0.01381,0.002 0.0014,1.3e-4 0.0028,3.9e-4 0.0042,4.7e-4 h 9e-6 c 0.0049,2.9e-4 0.0098,1.6e-4 0.01461,-1.6e-4 0.0012,-8e-5 0.0023,-10e-6 0.0035,-1.2e-4 0.0015,-1.5e-4 0.0029,-4.2e-4 0.0044,-6.2e-4 3.54e-4,-3e-5 0.001,4e-5 0.0014,10e-6 0.0011,1.2e-4 0.0017,3.5e-4 0.0034,3.5e-4 0.0055,0 0.0074,-8.3e-4 0.0061,-0.002 0.0054,-0.001 0.01051,-0.003 0.01678,-0.006 0.004,-0.002 0.0073,-0.004 0.01065,-0.005 4.48e-4,-1.7e-4 9.62e-4,-4.7e-4 0.0014,-6.2e-4 0.0027,-9.5e-4 0.0055,-10e-4 0.0083,-0.002 0.0011,-2e-4 0.0021,-6.1e-4 0.0034,-7.4e-4 0.0071,-8.1e-4 0.01799,-1.2e-4 0.03149,8.3e-4 1.5e-5,0 1.7e-5,0 3.5e-5,0 0.0021,1.6e-4 0.0025,-5e-5 0.0048,1.5e-4 0.0061,0.002 0.01528,0.002 0.02465,0.001 0.0014,0 0.0043,2.8e-4 0.0055,2.2e-4 9.24e-4,0.001 0.0027,9e-4 0.0051,8e-5 5.3e-5,0 2.41e-4,2e-5 2.92e-4,10e-6 0.0031,-3.3e-4 0.0051,-9.6e-4 0.0066,-0.002 9.45e-4,-6.4e-4 0.0014,-0.002 0.0019,-0.003 3e-6,0 1.5e-5,0 1.7e-5,-10e-6 2.59e-4,-3.7e-4 9.43e-4,-6.4e-4 0.0013,-9.7e-4 h 9e-6 c 0.0019,-9.7e-4 0.0048,-0.002 0.0081,-0.002 5.73e-4,-1.2e-4 7.82e-4,-3.1e-4 0.0014,-4.2e-4 1.8e-5,-1e-5 3.6e-5,-2e-5 5.3e-5,-2e-5 3.6e-5,-1e-5 3.6e-5,-1e-5 7.1e-5,-2e-5 3.5e-5,-10e-6 5.3e-5,-2e-5 1.06e-4,-3e-5 0.0012,-2.1e-4 0.0014,-6.2e-4 0.0028,-8.1e-4 0.0059,-7.9e-4 0.01484,-0.001 0.02371,-0.001 9.92e-4,-3e-5 0.0016,-1.3e-4 0.0026,-1.4e-4 4.39e-4,3e-5 4.2e-4,-10e-6 8.69e-4,3e-5 5e-6,0 4e-6,0 9e-6,0 0.0018,1.6e-4 0.0023,0 0.0039,1.3e-4 0.0048,0.002 0.01424,0.002 0.02428,8e-4 10e-4,7e-5 0.0013,2.6e-4 0.0027,2.7e-4 0.0074,9e-5 0.01092,-8e-4 0.0085,-0.002 0.0044,-9.3e-4 0.0089,-0.002 0.01284,-0.004 3e-6,0 6e-6,0 9e-6,0 0.002,-9.9e-4 0.0033,-0.001 0.005,-0.002 7.37e-4,-2.7e-4 0.0023,-3.8e-4 0.0029,-6.7e-4 0.0028,-0.001 0.0048,-0.002 0.0068,-0.003 0.0035,-6.2e-4 0.0069,-0.001 0.0089,-4.7e-4 2.63e-4,6e-5 4.19e-4,-1e-5 6.75e-4,5e-5 0.0012,5.3e-4 0.0024,9.8e-4 0.0038,0.002 0.0019,0.002 0.0041,0.004 0.0069,0.007 v 10e-6 c 0.0014,0.001 0.0026,0.002 0.0039,0.004 1.76e-4,1.6e-4 2.97e-4,3e-4 4.75e-4,4.6e-4 -0.0012,6.3e-4 -8.8e-4,0.002 0.0024,0.004 0.0026,0.002 0.0034,0.002 0.0048,0.003 9.96e-4,8.1e-4 0.002,0.002 0.003,0.003 h 9e-6 c 1.06e-4,8e-5 2.35e-4,1.1e-4 3.47e-4,1.9e-4 0.0023,0.002 0.0049,0.003 0.0073,0.004 3.6e-5,2e-5 5.3e-5,5e-5 8.9e-5,7e-5 2e-6,0 7e-6,0 9e-6,0 6.1e-4,3.6e-4 0.0011,5.2e-4 0.0016,8.6e-4 0.0019,9.6e-4 0.0037,0.002 0.0057,0.003 3.62e-4,2.8e-4 -7.1e-5,3.4e-4 4.12e-4,6.5e-4 0.0065,0.004 0.01808,0.005 0.02329,0.004 0.0036,1.3e-4 0.0077,-3e-5 0.01176,-2.2e-4 1.42e-4,0 2.5e-4,0 3.84e-4,0 0.0026,-1.7e-4 0.0035,1.7e-4 0.0066,-9e-5 3.5e-5,0 7e-5,0 1.06e-4,0 7.1e-5,-1e-5 1.06e-4,-3e-5 1.82e-4,-3e-5 1.24e-4,-10e-6 2.05e-4,0 3.29e-4,-10e-6 0.0095,-8e-4 0.0178,-0.002 0.02511,-0.004 0.0038,-8.4e-4 0.0067,-0.002 0.0099,-0.003 0.0015,-5.1e-4 0.0029,-9.2e-4 0.0043,-0.001 7e-4,-2.9e-4 0.0016,-4.7e-4 0.0022,-7.6e-4 9.27e-4,-4.1e-4 0.0022,-6e-4 0.0031,-0.001 0.0013,-6.5e-4 0.0023,-0.002 0.0036,-0.002 6.14e-4,-3.6e-4 0.0017,-6.8e-4 0.0022,-0.001 3.32e-4,-2.3e-4 9.11e-4,-0.001 0.0013,-0.001 0.0032,-0.002 0.0066,-0.004 0.0094,-0.007 1.42e-4,-1.4e-4 3.56e-4,-2.2e-4 5.03e-4,-3.6e-4 5.3e-5,-6e-5 1.06e-4,-1.4e-4 1.59e-4,-1.9e-4 l 9e-6,-10e-6 9e-6,-10e-6 c 0.0027,-0.003 0.0048,-0.006 0.0071,-0.009 9.59e-4,-0.001 0.002,-0.002 0.003,-0.004 3.6e-5,-7e-5 8.9e-5,-10e-5 1.42e-4,-1.7e-4 l 3.5e-5,-4e-5 4.85e-4,-7.3e-4 c 4.53e-4,-6.9e-4 10e-4,-0.001 0.0015,-0.002 l 9e-6,-10e-6 c 1.42e-4,-2.3e-4 1.91e-4,-6.6e-4 3.29e-4,-8.8e-4 l 9.32e-4,-0.001 2.02e-4,-3e-4 1.24e-4,-2e-4 3.57e-4,-5.3e-4 0.0013,-0.002 0.0061,-0.008 8.9e-5,-1.3e-4 1.06e-4,-1.3e-4 v -9.9e-4 l 2.46e-4,-3.6e-4 v -1e-5 l -1.8e-5,-0.0266 -3.5e-5,-0.15983 9e-6,-0.13316998 c 0,-0.007 -8.9e-5,-0.006 -1.07e-4,-0.0136 -5.3e-5,-0.0685 -3.83e-4,-0.12833 -8.13e-4,-0.17983 -10e-6,-7.2e-4 5.3e-5,-0.001 3.5e-5,-0.002 -8e-6,-5e-4 -3.5e-5,-5.1e-4 -5.3e-5,-0.001 -1.24e-4,-0.0138 -1.91e-4,-0.0262 -3.29e-4,-0.0381 -1.41e-4,-0.009 -8e-6,-0.0388 -2.1e-4,-0.0457 -3.6e-5,-0.002 -1.59e-4,-0.001 -2.11e-4,-0.003 -3.5e-5,-0.001 -1.06e-4,-0.001 -1.41e-4,-0.002 -5e-6,-1.4e-4 -1.3e-5,-1.6e-4 -1.8e-5,-3.1e-4 -10e-7,-4e-5 -7e-6,-6e-5 -9e-6,-9e-5 -8.8e-5,-0.002 -2.6e-4,-0.003 -3.57e-4,-0.005 -1.24e-4,-0.003 -1.06e-4,-0.0314 -2.37e-4,-0.0315 -0.0013,-0.001 -0.0024,-0.006 -0.0024,-0.0102 0,-0.004 -0.01,-0.015 -0.02223,-0.0238 -0.0061,-0.004 -0.01084,-0.007 -0.01544,-0.01 -7.11e-4,-3.7e-4 -0.0015,-9.9e-4 -0.0022,-0.001 -0.001,-4.9e-4 -0.0026,-7.7e-4 -0.0037,-0.001 -0.0016,-5.8e-4 -0.0036,-0.001 -0.0053,-0.002 -0.0023,-6.3e-4 -0.0046,-0.001 -0.0072,-0.002 -5.78e-4,-1.4e-4 -0.0011,-3.9e-4 -0.0017,-5.1e-4 -1.1e-5,0 -3.5e-5,0 -5.3e-5,0 h -9e-6 l -9e-6,-1e-5 c -5.94e-4,-1.2e-4 -0.0018,-5e-5 -0.0024,-1.6e-4 h -9e-6 -9e-6 c -4.87e-4,-7e-5 -10e-4,-1e-4 -0.0015,-1.7e-4 -4.16e-4,-6e-5 -8.05e-4,-1.3e-4 -0.0012,-1.9e-4 -0.0053,-7.4e-4 -0.01054,-9.3e-4 -0.01629,-0.001 -0.0041,-3.3e-4 -0.0077,-3.6e-4 -0.01182,-4.5e-4 -7.1e-5,0 -8.8e-5,-1e-5 -1.77e-4,-1e-5 h -1.06e-4 -5.3e-5 c -3.04e-4,0 -4.4e-4,2e-5 -7.41e-4,2e-5 -8.8e-5,0 -1.06e-4,-4e-5 -1.82e-4,-4e-5 -0.002,0 -0.003,7e-5 -0.0048,9e-5 -0.0014,5e-5 -0.0027,-2e-5 -0.0041,7e-5 -0.0011,1e-5 -0.0023,4e-5 -0.0033,5e-5 -0.0024,-1e-5 -0.0051,6e-5 -0.0071,1.1e-4 -6.03e-4,3e-5 -0.0016,0 -0.0022,3e-5 -7.25e-4,4e-5 -0.0011,2e-4 -0.0018,2.5e-4 -8.03e-4,9e-5 -0.0015,2.1e-4 -0.0023,3.1e-4 -0.0024,2.8e-4 -0.0053,5e-4 -0.0074,0.001 -0.0014,3.2e-4 -0.0032,8.1e-4 -0.0044,0.001 -1.42e-4,3e-5 -2.04e-4,1e-4 -3.38e-4,1.4e-4 -2.96e-4,1.1e-4 -5.72e-4,2.5e-4 -8.6e-4,3.7e-4 -0.0021,4.4e-4 -0.0032,0.001 -0.0049,0.002 -1.06e-4,3e-5 -3.19e-4,3e-5 -4.3e-4,7e-5 -3.34e-4,1.1e-4 -4.7e-4,2.4e-4 -7.96e-4,3.5e-4 -0.0033,0.001 -0.0063,0.002 -0.0082,0.004 -1.77e-4,1.1e-4 -5.08e-4,2e-4 -6.67e-4,3e-4 -0.0013,9e-4 -0.0014,0.002 -0.002,0.003 h -1e-5 c -4.1e-4,4e-4 -0.0012,7e-4 -0.0015,0.001 -9.21e-4,0.001 -0.0025,0.002 -0.0037,0.003 -0.0083,0.005 -0.01463,0.009 -0.01978,0.0111 -0.0022,7.2e-4 -0.0044,0.002 -0.0065,0.002 -1.07e-4,0 -1.86e-4,2e-5 -2.83e-4,4e-5 -0.0033,5.4e-4 -0.0063,5.5e-4 -0.0086,-1.9e-4 -0.0013,-4.3e-4 -0.0031,-5.4e-4 -0.0046,-8.8e-4 -0.0053,-0.001 -0.01093,-0.002 -0.01677,-0.002 -0.002,-1.1e-4 -0.0039,-8.8e-4 -0.0059,-8.5e-4 -0.0011,-2.5e-4 -0.0041,-6.4e-4 -0.0048,-8.3e-4 -0.0033,-9e-4 -0.0077,5.9e-4 -0.01143,0.003 -0.0034,7.6e-4 -0.0067,0.002 -0.0098,0.003 -0.01208,0.005 -0.01731,0.004 -0.03027,-0.002 -0.0016,-9.9e-4 -0.0036,-0.002 -0.0057,-0.003 -2.07e-4,-1.1e-4 -3.73e-4,-2.9e-4 -5.85e-4,-4e-4 -8.8e-5,-3e-5 -2.18e-4,-5e-5 -3.02e-4,-9e-5 -9.02e-4,-4.2e-4 -0.0022,-6.2e-4 -0.0032,-9.6e-4 -5.55e-4,-2e-4 -0.0011,-3.8e-4 -0.0017,-5.5e-4 -0.0012,-3.3e-4 -0.002,-7.8e-4 -0.0033,-0.001 -1.42e-4,-4e-5 -3.75e-4,-6e-5 -5.2e-4,-7e-5 -4.94e-4,-1.1e-4 -0.0012,-1.4e-4 -0.0017,-2.4e-4 -2.76e-4,-7e-5 -5.26e-4,-2e-4 -8.05e-4,-2.7e-4 h -9e-6 -9e-6 c -1.3e-5,-10e-6 -3.6e-5,-10e-6 -5.3e-5,-10e-6 -1.42e-4,-4e-5 -2.52e-4,-9e-5 -3.84e-4,-1.3e-4 -0.0031,-0.002 -0.01084,-0.003 -0.02329,-0.002 -0.0022,-5e-5 -0.0044,-1.4e-4 -0.0068,-1.2e-4 -0.0017,2e-5 -0.0025,-2.3e-4 -0.0043,-1.8e-4 -0.01059,3.2e-4 -0.01611,-2.7e-4 -0.02211,-8.7e-4 -0.0021,-2.2e-4 -0.0058,3e-5 -0.0075,-3.5e-4 -0.0073,-0.002 -0.01244,-0.005 -0.01907,-0.009 -4.42e-4,-3.3e-4 -8.47e-4,-4.9e-4 -0.0013,-8.1e-4 -10e-4,-7.2e-4 -0.0016,-0.002 -0.0027,-0.002 -0.0013,-8.3e-4 -0.0029,-0.001 -0.0044,-0.002 -7.34e-4,-3.9e-4 -0.0016,-7.8e-4 -0.0023,-0.001 -8.29e-4,-3.8e-4 -0.0018,-6.2e-4 -0.0027,-9.7e-4 -0.0019,-7.5e-4 -0.0037,-0.002 -0.0059,-0.002 -2.21e-4,-5e-5 -3.7e-4,-1.6e-4 -5.95e-4,-2.2e-4 h -9e-6 c -3.5e-5,0 -8.8e-5,0 -1.23e-4,-1e-5 -7.1e-5,-1e-5 -2.32e-4,-1e-5 -3.01e-4,-3e-5 -9.18e-4,-2.3e-4 -0.0018,-4.7e-4 -0.0028,-6.7e-4 -0.0012,-3e-4 -0.0022,-7.3e-4 -0.0035,-9.9e-4 -0.0021,-4.1e-4 -0.0047,-5.4e-4 -0.007,-8.5e-4 -0.0079,-0.001 -0.01622,-0.002 -0.02489,-0.002 z m -0.84698,0.54518998 c 0.0099,-0.001 0.0528,-2.6e-4 0.09526,0.002 0.04056,0.002 0.07133,0.004 0.07486,0.005 v 0.0967 c 0,0.0449 -2.23e-4,0.0673 -0.0013,0.0816 -1e-6,10e-6 0,3e-5 0,4e-5 -1e-6,10e-6 0,4e-5 0,5e-5 0,0 -9e-6,10e-6 -1e-5,10e-6 v 10e-6 c 0,1e-5 1e-6,2e-5 0,2e-5 -3.37e-4,0.003 -5.92e-4,0.008 -9.95e-4,0.01 -3.03e-4,0.002 -6.44e-4,0.004 -10e-4,0.005 l -9e-6,1e-5 c -6.72e-4,0.002 -0.0014,0.004 -0.0024,0.006 -0.0011,0.001 -0.0021,0.003 -0.0036,0.004 -0.0026,0.001 -0.0058,0.004 -0.0088,0.008 h -9e-6 c -3.56e-4,4.2e-4 -5.89e-4,9.6e-4 -9.41e-4,0.001 l -1e-5,1e-5 c -0.0024,0.003 -0.0041,0.005 -0.0053,0.007 -3.62e-4,7.1e-4 -0.0012,0.002 -0.0014,0.002 -4.9e-4,0.002 -0.0043,0.006 -0.0059,0.009 -5e-6,10e-6 -1.8e-5,3e-5 -3.5e-5,4e-5 v 1e-5 c -5.3e-5,7e-5 -1.24e-4,1.6e-4 -1.6e-4,2.3e-4 -2e-6,1e-5 -6e-6,1e-5 -9e-6,1e-5 -0.0047,0.008 -0.01,0.016 -0.01525,0.022 -4e-6,0 -6e-6,1e-5 -9e-6,2e-5 -0.0047,0.005 -0.0086,0.0109 -0.01172,0.0169 -0.0028,0.005 -0.0047,0.0112 -0.0064,0.0176 -1.8e-5,9e-5 -7.1e-5,1.6e-4 -8.9e-5,2.5e-4 -1.06e-4,3.9e-4 -2.97e-4,6.8e-4 -3.92e-4,0.001 -8.9e-5,3.7e-4 -2.71e-4,6.3e-4 -3.58e-4,0.001 v 10e-6 c -7e-5,3e-4 -7e-5,7.3e-4 -1.41e-4,0.001 -1.06e-4,4.6e-4 -1.06e-4,0.001 -2.02e-4,0.002 -2.24e-4,0.001 -2.67e-4,0.002 -4.67e-4,0.004 -3.5e-5,1.6e-4 -3.5e-5,3.6e-4 -7e-5,5.3e-4 -1.79e-4,0.001 -2.73e-4,0.002 -4.3e-4,0.003 -2.62e-4,0.002 -4.97e-4,0.004 -7.04e-4,0.005 -7.1e-5,6.5e-4 -1.8e-4,0.001 -2.48e-4,0.002 -1.8e-4,0.002 -4.74e-4,0.003 -6.2e-4,0.005 -7.1e-5,10e-4 -3.29e-4,0.002 -3.93e-4,0.003 -7e-6,1.4e-4 -3.5e-5,2.2e-4 -5.3e-5,3.6e-4 -1.24e-4,0.002 5.3e-5,0.006 -9e-6,0.009 -1e-6,3e-5 -8e-6,8e-5 -9e-6,1.2e-4 -2.53e-4,0.006 -6.62e-4,0.0111 -6.67e-4,0.0181 -7e-6,0.011 3.5e-4,0.0202 0.0012,0.028 v 1e-5 c 3.6e-5,3.5e-4 1.6e-4,5.4e-4 2.02e-4,8.8e-4 l 8.68e-4,0.0241 h 9e-6 l 0.02191,0.0196 c 0.01461,0.0131 0.02296,0.0249 0.02504,0.0353 3.52e-4,0.002 0.0014,0.004 0.0021,0.006 9.11e-4,0.003 0.0014,0.005 0.0027,0.008 v 1e-5 c 7.1e-5,1.6e-4 1.86e-4,2.4e-4 2.65e-4,3.9e-4 6.21e-4,0.001 0.0014,0.002 0.002,0.003 0.0017,0.003 0.0034,0.005 0.0051,0.007 2.76e-4,3e-4 5.21e-4,9e-4 7.96e-4,0.001 1.59e-4,1.6e-4 2.21e-4,3.4e-4 3.75e-4,5e-4 l 9e-6,1e-5 c 1.6e-5,1e-5 1.7e-5,3e-5 3.5e-5,5e-5 1.59e-4,2e-4 3.33e-4,5.2e-4 4.94e-4,7.1e-4 7e-5,7e-5 1.23e-4,2.4e-4 2.01e-4,3.1e-4 3.6e-5,4e-5 5.3e-5,9e-5 8.9e-5,1.3e-4 5.96e-4,6.8e-4 0.0013,0.002 0.0019,0.003 9.85e-4,8.4e-4 0.0015,0.002 0.0023,0.003 1.06e-4,2e-4 2.89e-4,3e-4 3.84e-4,5.1e-4 5.68e-4,0.001 8.31e-4,0.004 0.0013,0.005 6.87e-4,0.002 0.0015,0.004 0.002,0.008 0.0015,0.0127 0.002,0.0342 0.0027,0.0743 1e-6,5e-5 -1e-6,4e-5 0,9e-5 l 4.39e-4,0.0257 c -7.1e-5,0.008 -2.51e-4,0.0145 -4.02e-4,0.0206 -3e-6,1.2e-4 -6e-6,3.1e-4 -9e-6,4.4e-4 -3.5e-5,10e-4 -5.3e-5,0.004 -1.06e-4,0.005 -1.24e-4,0.004 -1.06e-4,0.0115 -2.92e-4,0.0147 -1.24e-4,0.002 -3.5e-5,0.008 -1.93e-4,0.01 -3.41e-4,0.004 -9.67e-4,0.006 -0.0015,0.009 -3.87e-4,0.002 -6.23e-4,0.005 -0.0011,0.006 -8.49e-4,0.003 -0.0021,0.004 -0.0033,0.006 l -0.01283,0.0195 c -8.9e-5,1.4e-4 -1.42e-4,2.4e-4 -2.29e-4,3.8e-4 -0.0037,0.006 -0.0072,0.0116 -0.01104,0.0182 -0.01644,0.0266 -0.02767,0.0493 -0.03409,0.0707 -8.9e-5,2.8e-4 -3.08e-4,7.2e-4 -3.93e-4,9.9e-4 -4.83e-4,0.002 -6.98e-4,0.004 -0.0011,0.005 -0.0025,0.009 -0.0046,0.0192 -0.0057,0.0292 -0.0025,0.0183 -0.0031,0.0371 -0.0013,0.0561 1.42e-4,0.002 2.37e-4,0.004 4.21e-4,0.007 4.12e-4,0.006 0.0012,0.0106 0.0019,0.0158 8.8e-5,6.1e-4 2.09e-4,10e-4 3.01e-4,0.002 4.26e-4,0.003 8.54e-4,0.006 0.0014,0.008 2.3e-4,10e-4 2.74e-4,0.003 5.22e-4,0.004 5.3e-5,2.2e-4 1.77e-4,5.1e-4 2.19e-4,7.4e-4 3.66e-4,0.002 4.72e-4,0.004 8.77e-4,0.005 0.0011,0.004 0.003,0.009 0.0045,0.0134 10e-4,0.003 0.0019,0.007 0.0031,0.0101 0.0014,0.004 0.0037,0.008 0.0053,0.012 0.0036,0.009 0.007,0.018 0.01165,0.0262 0.004,0.007 0.0092,0.0135 0.014,0.0201 0.0032,0.004 0.0057,0.009 0.0092,0.0132 l 3.5e-5,4e-5 c 5e-6,0 5e-6,1e-5 9e-6,2e-5 l 0.0056,0.007 0.0043,0.005 0.0051,0.006 0.0017,0.19214 c 1.59e-4,0.0183 -8.8e-5,0.0174 3.6e-5,0.0324 -1.8e-5,0.006 -3.98e-4,0.012 -3.75e-4,0.0179 3.5e-5,0.008 3.15e-4,0.0113 4.21e-4,0.0181 7e-5,0.0125 5.3e-5,0.025 5.3e-5,0.0345 -2.3e-4,0.0237 -1.95e-4,0.06 -5.95e-4,0.0676 -1.8e-4,0.003 -3.78e-4,0.006 -6.03e-4,0.008 -10e-7,10e-6 2e-6,3e-5 0,5e-5 -3.66e-4,0.003 -5.94e-4,0.008 -0.0011,0.01 -1.1e-5,4e-5 -1.6e-5,1.6e-4 -3.5e-5,2e-4 -4e-6,2e-5 -5e-6,6e-5 -9e-6,8e-5 -5.84e-4,0.003 -0.0013,0.004 -0.0021,0.004 -9.67e-4,9e-4 -0.002,10e-4 -0.0034,0.002 -1.41e-4,3e-5 -5.22e-4,3e-5 -6.67e-4,7e-5 -7.71e-4,1.8e-4 -0.0027,1.9e-4 -0.0035,3.6e-4 -0.0085,0.002 -0.02202,0.003 -0.03733,0.004 -0.0072,2.4e-4 -0.01144,-2e-5 -0.01815,5e-5 -0.01097,4e-5 -0.02322,3.3e-4 -0.02923,-6.5e-4 l -0.01872,-0.003 -0.0012,-0.3521 c 0,-2e-5 0,-2e-5 0,-5e-5 v -3.6e-4 l -1.8e-5,-0.006 c -9.78e-4,-0.27991 -0.0023,-0.33557 0.0081,-0.35377 l 6.12e-4,-5e-4 c 0.0065,-0.005 0.009,-0.008 0.01238,-0.0119 0.0011,-8.1e-4 0.002,-0.001 0.0032,-0.002 4.46e-4,-3.6e-4 7.19e-4,-0.001 0.0011,-0.002 0.0042,-0.005 0.0062,-0.0103 0.0062,-0.0172 10e-7,-5e-5 3.6e-5,-9e-5 3.6e-5,-1.4e-4 0,-0.003 0.0014,-0.006 0.0026,-0.009 4e-6,-1e-5 5e-6,-2e-5 9e-6,-3e-5 6e-6,-2e-5 1.2e-5,-4e-5 1.8e-5,-6e-5 1.7e-5,-3e-5 1.7e-5,-8e-5 3.5e-5,-1.2e-4 5.69e-4,-10e-4 3.73e-4,-0.003 0.0013,-0.004 0.0018,-0.003 0.0057,-0.005 0.0093,-0.008 9.15e-4,-6.8e-4 0.0013,-10e-4 0.0024,-0.002 9e-6,0 1.7e-5,-1e-5 3.5e-5,-1e-5 0.0033,-0.002 0.0067,-0.004 0.0096,-0.007 l 0.0099,-0.006 h 9e-6 v -1e-5 -5e-5 l 3.75e-4,-0.0131 c 3e-6,-10e-6 -3e-6,-5e-5 0,-7e-5 v -10e-6 l 9e-6,-1e-5 c 7.23e-4,-0.005 8.31e-4,-0.0139 9.96e-4,-0.0219 3.25e-4,-0.007 7.04e-4,-0.0127 8.05e-4,-0.02 9e-6,-0.002 1.59e-4,-0.002 1.59e-4,-0.004 0,-0.004 -2.3e-4,-0.005 -2.74e-4,-0.008 -3.6e-5,-0.007 7e-5,-0.0144 -2.02e-4,-0.0208 -1.91e-4,-0.005 -7.15e-4,-0.007 -10e-4,-0.0111 0,0 1e-6,-10e-6 0,-10e-6 -5.3e-5,-7.9e-4 3.5e-5,-0.003 -3.5e-5,-0.003 -5e-6,-5e-5 4e-6,-1.6e-4 0,-2.1e-4 -7.1e-5,-7.9e-4 -2.39e-4,-10e-4 -3.2e-4,-0.002 l -4.76e-4,-0.0178 -0.01523,-0.02 c -0.0033,-0.005 -0.0068,-0.009 -0.01086,-0.0138 -0.0049,-0.006 -0.01156,-0.0148 -0.01187,-0.0148 -8.9e-5,0 2.77e-4,0.001 2.56e-4,0.002 -1.24e-4,-1.3e-4 -2.26e-4,-2.7e-4 -3.46e-4,-3.9e-4 -0.0024,-0.002 -0.0045,-0.004 -0.0069,-0.006 l 0.0028,-5e-5 -0.01105,-0.009 c -0.005,-0.004 -0.01144,-0.007 -0.01644,-0.008 -6e-6,0 -1.2e-5,-1e-5 -1.8e-5,-1e-5 -4.91e-4,-1.1e-4 -0.0015,-9.8e-4 -0.0019,-9.8e-4 -0.0018,0 -0.003,-2.6e-4 -0.0042,-5.6e-4 -5.3e-5,-1e-5 -1.06e-4,-1e-5 -1.59e-4,-3e-5 -1.8e-5,-1e-5 -1.8e-5,-4e-5 -5.3e-5,-6e-5 h -9e-6 c -3.5e-5,-2e-5 -3.5e-5,-6e-5 -7.1e-5,-7e-5 -5.3e-5,-2e-5 -7e-5,-9e-5 -1.23e-4,-1.1e-4 -2.18e-4,-1.1e-4 -2.92e-4,-3.5e-4 -4.94e-4,-4.7e-4 -7e-6,0 -1e-5,-1e-5 -1.8e-5,-1e-5 h -9e-6 l -9e-6,-1e-5 c -7e-6,-1e-5 -1.1e-5,-2e-5 -1.7e-5,-2e-5 -2.18e-4,-1.2e-4 -3.4e-4,-3.7e-4 -5.4e-4,-5.1e-4 -1.4e-5,-1e-5 -1.8e-5,-2e-5 -3.5e-5,-4e-5 -1.59e-4,-1.2e-4 -2.81e-4,-2.9e-4 -4.3e-4,-4.2e-4 -7.68e-4,-6.8e-4 -0.0018,-10e-4 -0.0022,-0.002 -2e-6,-10e-6 1e-6,-2e-5 0,-2e-5 -2e-6,-1e-5 2e-6,-2e-5 0,-4e-5 -3.6e-5,-7e-5 -6e-6,-3.3e-4 -3.6e-5,-4e-4 -2.42e-4,-5.4e-4 -8.8e-5,-0.003 -2.74e-4,-0.003 -5.3e-5,-1.7e-4 -3.5e-5,-6.5e-4 -7e-5,-8.4e-4 v -10e-6 c -2e-6,0 10e-7,-3e-5 0,-3e-5 -5e-6,-2e-5 -5e-6,-7e-5 -1e-5,-9e-5 -3.5e-5,-1.6e-4 -3.5e-5,-6e-4 -7e-5,-7.8e-4 -6e-6,-3e-5 -4e-6,-8e-5 -9e-6,-1.2e-4 -7.86e-4,-0.004 -0.0013,-0.008 -0.0014,-0.0172 3.5e-5,-0.008 0.0011,-0.0141 0.0024,-0.0203 1.81e-4,-8.5e-4 1.24e-4,-0.002 3.38e-4,-0.003 0.0025,-0.01 0.0076,-0.0209 0.01632,-0.0373 0.0066,-0.012 0.01256,-0.0233 0.01717,-0.0334 v -1e-5 c 0.0053,-0.0117 0.0094,-0.0225 0.01254,-0.0332 v -1e-5 c 7.61e-4,-0.003 9.64e-4,-0.005 0.0016,-0.008 0.0035,-0.0128 0.0063,-0.0256 0.0079,-0.0394 9.67e-4,-0.009 0.0012,-0.0174 9.05e-4,-0.0265 -1.59e-4,-8.5e-4 4.21e-4,-0.001 8.9e-5,-0.002 -1.24e-4,-3.1e-4 -1.93e-4,-10e-5 -3.11e-4,-3.4e-4 -1.07e-4,-0.002 -4.48e-4,-0.005 -6.41e-4,-0.007 -8.8e-5,-0.001 -2.37e-4,-0.003 -3.57e-4,-0.004 -6.15e-4,-0.006 -0.0014,-0.0125 -0.0026,-0.0188 -1.59e-4,-0.001 -1.41e-4,-0.004 -3.28e-4,-0.005 -1.42e-4,-8.9e-4 -4.73e-4,-0.002 -6.21e-4,-0.003 -6.02e-4,-0.005 -0.0016,-0.01 -0.0029,-0.0126 l -0.0014,-0.003 c -0.0012,-0.004 -0.0016,-0.008 -0.0032,-0.0122 -3.96e-4,-0.001 -9.12e-4,-0.002 -0.0013,-0.003 -2.54e-4,-6.7e-4 -2.47e-4,-0.001 -5.11e-4,-0.002 -5.04e-4,-0.001 -0.0011,-0.002 -0.0017,-0.004 -0.003,-0.008 -0.0066,-0.0162 -0.0104,-0.0242 -2.4e-4,-5.1e-4 -3.86e-4,-0.001 -6.31e-4,-0.002 -3.6e-5,-6e-5 -7.1e-5,-1.1e-4 -8.9e-5,-1.7e-4 -0.0045,-0.009 -0.0097,-0.0184 -0.01523,-0.0273 -6.01e-4,-9.8e-4 -0.0011,-0.002 -0.0017,-0.003 -5.3e-4,-8.4e-4 -0.0012,-0.002 -0.0017,-0.002 -10e-4,-0.002 -3.98e-4,-0.002 -0.0026,-0.006 -0.0024,-0.004 -0.0034,-0.004 -0.0053,-0.006 -0.0055,-0.008 -0.01015,-0.0143 -0.014,-0.0178 -1.06e-4,-1.1e-4 -1.24e-4,-2.2e-4 -2.37e-4,-3.4e-4 -9.67e-4,-9.6e-4 -0.0016,-0.001 -0.0023,-0.002 -0.0026,-0.003 -0.0052,-0.006 -0.0079,-0.009 -7e-5,-8e-5 -1.24e-4,-1.6e-4 -2.01e-4,-2.3e-4 -1.8e-5,-2e-5 -3.6e-5,-4e-5 -5.3e-5,-6e-5 -0.0072,-0.008 -0.01409,-0.0155 -0.01896,-0.0216 -2e-6,0 3e-6,-10e-6 0,-10e-6 -0.0046,-0.006 -0.0067,-0.009 -0.0075,-0.0116 v -1e-5 c -5e-6,-9.2e-4 -3.02e-4,-0.002 2.2e-4,-0.003 7e-4,-9.1e-4 0.0023,-0.001 0.004,-0.002 0.0011,-1.1e-4 8.94e-4,3e-5 0.0021,-1.2e-4 z m 0.141204,1.46320996 c 0.0097,2.2e-4 0.02629,2e-4 0.02675,6.3e-4 3.13e-4,3.3e-4 6.7e-4,0.0687 0.001,0.0974 5.73e-4,0.0448 0.0012,0.0693 0.0015,0.15182 7.1e-5,0.0245 -7.1e-5,0.032 -3.5e-5,0.0515 4.72e-4,0.15588 -3.7e-4,0.20207 -0.0057,0.20845 -4.25e-4,2.4e-4 -7.75e-4,5.4e-4 -0.0013,8.1e-4 -5.3e-5,3e-5 -8.8e-5,5e-5 -1.41e-4,9e-5 -0.0038,0.002 -0.0069,0.007 -0.0071,0.0104 -1.1e-5,1.6e-4 -1.82e-4,3.5e-4 -1.82e-4,5e-4 v 1e-5 c 0,4.2e-4 -2.6e-4,6.8e-4 -3.11e-4,10e-4 -1.06e-4,9.7e-4 -0.002,0.003 -0.0029,0.005 -8.9e-5,5e-5 -1.6e-4,1.2e-4 -2.46e-4,1.6e-4 -1.82e-4,9e-5 -3.22e-4,2.6e-4 -5.11e-4,3.1e-4 -2.6e-4,7e-5 -4.32e-4,4.2e-4 -7.04e-4,4.2e-4 -0.0013,0 -0.0025,7.9e-4 -0.0033,0.002 v 0 c -2.81e-4,4.3e-4 -2.54e-4,10e-4 -4.56e-4,0.002 -1.06e-4,2.6e-4 -1.42e-4,5.4e-4 -2.28e-4,8.2e-4 -2.37e-4,8.4e-4 -6.86e-4,0.002 -6.86e-4,0.002 v 1e-5 10e-6 c -10e-7,3e-5 -1.8e-5,5e-5 -1.8e-5,9e-5 0,3e-5 -1.8e-5,5e-5 -1.8e-5,7e-5 0,1e-5 -9e-6,3e-5 -9e-6,5e-5 0,1e-5 -9e-6,1e-5 -9e-6,2e-5 -10e-7,1e-5 -1.8e-5,3e-5 -1.8e-5,7e-5 0,1e-5 -8e-6,2e-5 -9e-6,3e-5 -1.7e-5,5.1e-4 -2.86e-4,8.5e-4 -3.75e-4,10e-4 -8.8e-5,4.8e-4 -2.23e-4,9.1e-4 -3.75e-4,10e-4 l -9e-6,1e-5 c -4.76e-4,5.8e-4 -9.27e-4,10e-4 -0.0014,0.002 -2.63e-4,3.4e-4 -5.14e-4,7.3e-4 -7.76e-4,0.001 -5.63e-4,3.6e-4 -10e-4,10e-4 -0.0017,10e-4 -0.0018,0 -0.003,0.002 -0.0038,0.004 -2.58e-4,3e-4 -3.91e-4,2.1e-4 -6.58e-4,5.4e-4 -0.0025,0.003 -0.0052,0.007 -0.0079,0.012 -7.1e-5,1.1e-4 -1.77e-4,9e-5 -2.37e-4,2.1e-4 -1.06e-4,2e-4 -7.1e-5,5.7e-4 -1.77e-4,7.9e-4 -4.56e-4,8.3e-4 -6.03e-4,0.002 -10e-4,0.003 -0.0044,0.008 -0.0087,0.0176 -0.01018,0.0245 0,0 10e-7,1e-5 0,1e-5 -8e-6,4e-5 -5.3e-5,1.8e-4 -5.3e-5,2.2e-4 0,0 -8e-6,2e-5 -9e-6,2e-5 -0.0021,0.006 -0.004,0.0135 -0.0059,0.0219 -1.89e-4,6.6e-4 -2.58e-4,6.3e-4 -4.47e-4,10e-4 -2.62e-4,9.2e-4 -3.52e-4,0.002 -6.03e-4,0.003 -4.12e-4,0.002 -8.58e-4,0.003 -0.0013,0.005 -2.37e-4,8.7e-4 -5.54e-4,10e-4 -7.86e-4,0.002 v 1e-5 c -5.3e-5,1.9e-4 -3.5e-5,2.8e-4 -8.8e-5,4.6e-4 -3.17e-4,0.001 -4.51e-4,0.002 -7.5e-4,0.004 -4.26e-4,0.002 -6.31e-4,0.003 -0.0011,0.004 -0.0021,0.007 -0.0035,0.0156 -0.0046,0.0241 -2.62e-4,0.002 -0.0011,0.004 -0.0013,0.006 v 1e-5 c -3.01e-4,0.003 1.42e-4,0.007 0,0.01 -1.24e-4,0.002 -2.39e-4,0.004 -3.02e-4,0.006 -10e-6,2.8e-4 -3.6e-5,5.5e-4 -3.6e-5,8.3e-4 -6e-6,2.4e-4 -3.5e-5,4.8e-4 -3.5e-5,7.2e-4 -1.3e-5,5.6e-4 -7.1e-5,0.001 -8.9e-5,0.002 -8.8e-5,0.006 8.9e-5,0.0119 4.48e-4,0.0179 3.5e-5,5.1e-4 -3.5e-5,7.7e-4 0,10e-4 v 1e-5 c 1.1e-5,1.6e-4 5.3e-5,3.1e-4 7.1e-5,4.8e-4 2.72e-4,0.006 8.1e-4,0.0109 0.0014,0.0164 2.18e-4,0.002 3.61e-4,0.003 6.12e-4,0.005 9.59e-4,0.007 0.0022,0.0145 0.0037,0.0216 0.0065,0.0315 0.0179,0.0603 0.0332,0.0796 3.02e-4,4.4e-4 6.33e-4,9.3e-4 9.41e-4,10e-4 1.77e-4,2.1e-4 3.11e-4,4.9e-4 4.84e-4,7e-4 4.28e-4,5.1e-4 6e-4,8e-4 0.001,10e-4 0.0042,0.006 0.0088,0.0122 0.01414,0.0189 0.0041,0.006 0.007,0.0112 0.009,0.0162 0.0036,0.0103 0.0043,0.022 0.0043,0.0412 5e-6,0.01 -7.16e-4,0.0126 -10e-4,0.0181 -0.0017,0.0116 -0.0043,0.0208 -0.01018,0.027 -8.89e-4,5.6e-4 -0.0014,0.001 -0.0024,0.002 -0.0075,0.004 -0.01629,0.013 -0.0195,0.019 -0.0032,0.006 -0.0081,0.0108 -0.0109,0.0107 -0.0035,-1.8e-4 -0.0101,-0.006 -0.01694,-0.0133 -0.0031,-0.004 -0.0059,-0.007 -0.0088,-0.01 -0.0078,-0.01 -0.01487,-0.0205 -0.01716,-0.0279 -4.51e-4,-10e-4 -0.0015,-0.003 -0.0022,-0.004 -1.06e-4,-10e-4 -1.42e-4,-0.003 -5.03e-4,-0.004 v 0 c -10e-7,-1e-5 -7e-6,-2e-5 -9e-6,-2e-5 -3.43e-4,-10e-4 -0.0011,-0.002 -0.0017,-0.003 -3.43e-4,-5.5e-4 -4.84e-4,-0.001 -9.23e-4,-0.002 h -9e-6 l -9e-6,-1e-5 c -4.53e-4,-5.3e-4 -0.0018,-9.6e-4 -0.0024,-10e-4 -0.0016,-0.002 -0.0036,-0.003 -0.0059,-0.005 -7.55e-4,-5.6e-4 -0.0015,-0.002 -0.0022,-0.002 -0.0059,-0.003 -0.01259,-0.008 -0.01483,-0.0117 -0.0025,-0.004 -0.0036,-0.0977 -0.0035,-0.18889 1.24e-4,-0.0291 6.35e-4,-0.0428 9.14e-4,-0.0636 4.02e-4,-0.0294 5.96e-4,-0.0637 0.0012,-0.0772 1.89e-4,-0.004 2.58e-4,-0.013 4.75e-4,-0.0162 5.58e-4,-0.009 0.0014,-0.0136 0.0021,-0.0188 4.81e-4,-0.003 8.26e-4,-0.009 0.0014,-0.0107 2.85e-4,-9.9e-4 6.31e-4,-0.001 9.41e-4,-0.002 4.86e-4,-10e-4 9.37e-4,-0.003 0.0015,-0.003 5.3e-5,-5e-5 1.42e-4,-9e-5 1.82e-4,-1.4e-4 9.75e-4,-0.001 0.002,-0.002 0.0032,-0.002 0.003,0 0.0059,-4.5e-4 0.0089,-10e-4 0.002,-5.6e-4 0.0039,-0.002 0.0058,-0.002 0.0035,-0.002 0.0066,-0.004 0.0098,-0.007 0.0016,-9.6e-4 0.0029,-0.002 0.0044,-0.003 0.0011,-10e-4 0.0023,-0.002 0.0033,-0.003 5e-6,0 1.4e-5,0 1.8e-5,-1e-5 2.51e-4,-2.8e-4 5.94e-4,-4.2e-4 8.42e-4,-7e-4 7e-5,-9e-5 1.06e-4,-1.8e-4 1.77e-4,-2.7e-4 8.95e-4,-0.001 0.0021,-0.002 0.0029,-0.003 3.32e-4,-4.6e-4 5.5e-4,-10e-4 8.68e-4,-0.002 3.75e-4,-4.8e-4 8.4e-4,-8.6e-4 0.0012,-10e-4 3.3e-4,-4.7e-4 4.88e-4,-10e-4 8.04e-4,-0.002 0.0042,-0.006 0.0067,-0.0136 0.008,-0.0213 10e-4,-0.003 0.0025,-0.007 0.0032,-0.0103 0.0015,-0.008 0.0052,-0.0147 0.0091,-0.0178 0.0061,-0.002 0.01028,-0.005 0.01352,-0.008 0.01092,-0.006 0.01954,-0.0125 0.01831,-0.0166 -0.0049,-0.0166 -0.01355,-0.0734 -0.0142,-0.0924 l -0.0013,-0.0235 -3.75e-4,-4e-4 -0.01748,-0.0182 c -2e-6,0 2e-6,-10e-6 0,-10e-6 -0.0017,-0.002 -0.0028,-0.003 -0.0043,-0.005 -0.0017,-0.002 -0.0032,-0.004 -0.0047,-0.006 -0.0054,-0.007 -0.0097,-0.0144 -0.0097,-0.0173 0,-9e-4 -0.0012,-0.002 -0.0015,-0.004 -0.0037,-0.0115 -0.01958,-0.0284 -0.03288,-0.0334 l -0.0076,-0.003 c -0.0018,-0.005 -0.0029,-0.0177 -0.0038,-0.0341 -2.13e-4,-0.006 -2.94e-4,-0.0176 -3.75e-4,-0.0266 -6e-6,-5.7e-4 -1.8e-5,-10e-4 -3.6e-5,-0.002 -2e-6,-2.5e-4 -7e-6,-4.8e-4 -9e-6,-7.3e-4 l 5.02e-4,-0.0407 0.0013,-0.10185 0.05727,-0.001 z m -0.04784,1.12383 c 0.0061,0.002 0.01594,0.0114 0.01594,0.0167 0,0.002 0.0035,0.007 0.0078,0.0109 0.0036,0.003 0.01254,0.0154 0.02051,0.0272 0.0028,0.004 0.0045,0.007 0.0072,0.0104 1.24e-4,5.6e-4 -6e-6,9.6e-4 2.28e-4,0.002 0.0011,0.003 0.0031,0.005 0.005,0.006 0.0039,0.006 0.0077,0.0112 0.01094,0.0141 7e-6,1e-5 1.2e-5,2e-5 1.8e-5,3e-5 5.41e-4,6.2e-4 0.0011,0.002 0.0016,0.002 0.0018,0.002 0.003,0.004 0.0043,0.005 0.0038,0.007 0.0061,0.0275 0.007,0.0509 1.41e-4,0.003 5.75e-4,0.006 6.49e-4,0.01 0,0 0,1e-5 0,2e-5 0,0 0,1e-5 0,1e-5 1e-6,8.1e-4 5.3e-5,8.5e-4 5.3e-5,0.002 1.82e-4,0.0106 -3.68e-4,0.0211 -7.96e-4,0.0316 -4e-6,9e-5 -5e-6,1.9e-4 -9e-6,2.8e-4 -2e-6,6e-5 -7e-6,1.1e-4 -9e-6,1.6e-4 -1e-6,2e-5 1e-6,6e-5 0,7e-5 -7.1e-5,0.002 -1.06e-4,0.004 -1.82e-4,0.005 -7.1e-5,10e-4 -5.3e-5,0.002 -1.24e-4,0.003 -3.5e-5,4e-4 -1.8e-5,9.1e-4 -5.3e-5,0.001 -1.8e-5,3.6e-4 -1.8e-5,8.3e-4 -5.3e-5,10e-4 -8e-6,1.1e-4 -2e-6,2.5e-4 -9e-6,3.5e-4 -6e-6,7e-5 -4e-6,1.8e-4 -1e-5,2.5e-4 0,0 10e-7,1e-5 0,1e-5 v 1e-5 c -4.35e-4,0.006 -0.0013,0.0103 -0.0019,0.0155 -6e-6,6e-5 -1.1e-5,1.1e-4 -1.7e-5,1.6e-4 -8e-6,7e-5 -1.8e-5,1.3e-4 -3.6e-5,1.9e-4 -8e-6,8e-5 -1.7e-5,1.3e-4 -3.5e-5,2e-4 -1.3e-5,10e-5 -1.8e-5,2e-4 -3.5e-5,3.1e-4 -6e-6,5e-5 -1.3e-5,9e-5 -1.8e-5,1.4e-4 -5.27e-4,0.004 -0.0011,0.008 -0.0018,0.0115 v 1e-5 c -1e-6,0 0,10e-6 0,10e-6 -1e-6,0 -8e-6,1e-5 -9e-6,2e-5 -0.0012,0.006 -0.002,0.0117 -0.0039,0.017 -4.9e-4,0.001 -9.82e-4,0.003 -0.0015,0.004 -4e-6,1e-5 -6e-6,2e-5 -9e-6,3e-5 -4e-6,1e-5 -6e-6,2e-5 -1e-5,4e-5 -7e-6,2e-5 -1.7e-5,4e-5 -3.5e-5,5e-5 -0.0019,0.005 -0.0026,0.007 -0.0041,0.0102 -0.0019,0.004 -0.0036,0.007 -0.0049,0.008 -2.56e-4,2.3e-4 -4.35e-4,8.5e-4 -6.95e-4,10e-4 -0.0026,0.002 -0.01914,0.004 -0.03799,0.006 -1.77e-4,1e-5 -3.19e-4,4e-5 -4.94e-4,5e-5 -3.5e-5,1e-5 -7e-5,1e-5 -1.06e-4,1e-5 -2.76e-4,2e-5 -5e-4,6e-5 -7.76e-4,7e-5 -4.6e-4,4e-5 -8.26e-4,9e-5 -0.0013,1.3e-4 -7e-5,-1e-5 -2.47e-4,1e-5 -3.2e-4,1e-5 -0.0023,-1.7e-4 -0.0015,-6.4e-4 -0.0055,-6.4e-4 -0.0052,0 -0.0099,7e-4 -0.01356,0.002 -1.06e-4,1e-5 -1.06e-4,-1e-5 -2.28e-4,1e-5 l -0.0096,9.7e-4 -0.02123,0.001 -0.0031,-0.0123 -0.0017,-0.007 v -1e-5 l -2.37e-4,-9.5e-4 v -2e-5 c -0.0013,-0.005 -0.0025,-0.0196 -0.0034,-0.0365 -8.9e-5,-0.002 -2.52e-4,-0.002 -3.38e-4,-0.004 -9.41e-4,-0.0194 -0.0015,-0.0435 -0.0015,-0.068 0,-0.085 2.07e-4,-0.0873 0.01079,-0.0957 0.0011,-8.9e-4 10e-4,-6.5e-4 0.0025,-0.002 0.0015,-0.001 0.0031,-0.004 0.0047,-0.006 0.001,-10e-4 0.002,-0.002 0.003,-0.004 0.0011,-0.002 0.0018,-0.003 0.0028,-0.005 3.22e-4,-5.8e-4 8.58e-4,-10e-4 0.0012,-0.002 v -1e-5 c 2e-6,-10e-6 7e-6,-10e-6 9e-6,-10e-6 1.06e-4,-2.1e-4 1.24e-4,-4.5e-4 2.19e-4,-6.6e-4 1.24e-4,-2.6e-4 1.42e-4,-5.5e-4 2.66e-4,-8.1e-4 1.23e-4,-2.5e-4 1.41e-4,-5.4e-4 2.65e-4,-8e-4 3.5e-5,-7e-5 5.3e-5,-1.6e-4 8.8e-5,-2.3e-4 8.81e-4,-0.002 0.0017,-0.004 0.0024,-0.006 1.78e-4,-5.4e-4 5.57e-4,-10e-4 7.12e-4,-0.002 3.91e-4,-0.001 1.83e-4,-0.002 5.03e-4,-0.003 4.81e-4,-0.002 0.0011,-0.003 0.0014,-0.005 3e-6,-1e-5 1.4e-5,-5e-5 1.7e-5,-7e-5 v -1e-5 c 10e-7,0 8e-6,-1e-5 9e-6,-1e-5 2e-6,-1e-5 9e-6,-2e-5 1e-5,-2e-5 10e-7,-1e-5 7e-6,-2e-5 9e-6,-4e-5 3e-6,-1e-5 1.5e-5,-3e-5 1.7e-5,-5e-5 v -10e-6 -1e-5 c 3e-6,-1e-5 7e-6,-2e-5 9e-6,-3e-5 10e-7,-1e-5 9e-6,-1e-5 1e-5,-1e-5 v -10e-6 c 10e-7,-1e-5 7e-6,-1e-5 9e-6,-2e-5 6e-6,-4e-5 1.7e-5,-5e-5 3.5e-5,-9e-5 1.42e-4,-8.7e-4 4.72e-4,-10e-4 6.4e-4,-0.002 8.9e-5,-3.9e-4 2.25e-4,-6e-4 3.12e-4,-9.8e-4 9e-6,-4e-5 3.5e-5,-7e-5 3.5e-5,-1.1e-4 1.06e-4,-4.7e-4 2.76e-4,-7.9e-4 3.93e-4,-0.001 2.14e-4,-8.3e-4 4.72e-4,-0.002 7.12e-4,-0.002 6.85e-4,-0.002 0.0012,-0.005 0.002,-0.006 0.0012,-0.002 0.0026,-0.003 0.004,-0.004 3.78e-4,-2.7e-4 7.15e-4,-7.7e-4 0.0011,-9.6e-4 z" /></svg>
